<?xml version="1.0" encoding="UTF-8"?>
<svg version="1.1" xmlns="http://www.w3.org/2000/svg" width="677" height="369">
<path d="M0 0 C-0.73431637 8.2670979 -1.84692296 16.4697372 -3 24.6875 C-3.26683594 26.6065918 -3.26683594 26.6065918 -3.5390625 28.56445312 C-4.02339717 32.04334951 -4.50978968 35.52192688 -5 39 C-5.17329834 40.23782227 -5.34659668 41.47564453 -5.52514648 42.75097656 C-5.93553557 45.55892412 -6.45444297 48.29246243 -7.0625 51.0625 C-7.69185532 54.05877858 -7.99271853 56.40776217 -7.9375 59.5 C-7.958125 60.325 -7.97875 61.15 -8 62 C-8.99 62.66 -9.98 63.32 -11 64 C-13.00612399 62.04761147 -15.00492433 60.08862178 -17 58.125 C-17.57234375 57.56941406 -18.1446875 57.01382813 -18.734375 56.44140625 C-20.19450782 54.99865596 -21.60149298 53.5025626 -23 52 C-23 51.34 -23 50.68 -23 50 C-23.721875 50.721875 -24.44375 51.44375 -25.1875 52.1875 C-27.0209517 54.0209517 -28.87441701 55.83467078 -30.75 57.625 C-33.19004674 59.86533112 -33.19004674 59.86533112 -34 63 C-34.969375 63.639375 -35.93875 64.27875 -36.9375 64.9375 C-40.07131164 67.0480262 -40.52609926 67.75741837 -42 71 C-43.6222454 72.70993434 -45.29413425 74.37347684 -47 76 C-53.59109483 82.49304549 -59.75249384 89.38676532 -65.8125 96.375 C-68.4369993 99.38327042 -71.05171755 102.30442747 -74 105 C-74.66 105 -75.32 105 -76 105 C-76.36158203 105.85271484 -76.36158203 105.85271484 -76.73046875 106.72265625 C-78.24968088 109.44788908 -80.07418981 111.26690339 -82.3125 113.4375 C-83.11558594 114.21996094 -83.91867187 115.00242187 -84.74609375 115.80859375 C-85.48988281 116.53175781 -86.23367188 117.25492187 -87 118 C-87.96042232 118.99799386 -88.91927258 119.99750916 -89.875 121 C-92 123 -92 123 -95 124 C-95.495 125.485 -95.495 125.485 -96 127 C-97.64821244 128.03013277 -99.31503702 129.03114628 -101 130 C-101.33 130.66 -101.66 131.32 -102 132 C-103.66666667 132.66666667 -105.33333333 133.33333333 -107 134 C-107.33 134.66 -107.66 135.32 -108 136 C-110.5625 136.625 -110.5625 136.625 -113 137 C-113 137.66 -113 138.32 -113 139 C-116.08046594 140.48519268 -119.16484002 141.96208605 -122.25 143.4375 C-123.12269531 143.85837891 -123.99539063 144.27925781 -124.89453125 144.71289062 C-125.73886719 145.11572266 -126.58320313 145.51855469 -127.453125 145.93359375 C-128.22817383 146.30540771 -129.00322266 146.67722168 -129.80175781 147.06030273 C-131.86918601 147.94408007 -133.8081676 148.52183446 -136 149 C-136.73734375 149.17917969 -137.4746875 149.35835937 -138.234375 149.54296875 C-146.62918117 150.93024604 -157.52096177 151.68213799 -165.140625 147.35546875 C-172.92263451 141.68244921 -174.83134492 136.22498588 -176.37841797 126.99145508 C-177.24279338 120.94150995 -176.09731716 117.08123817 -174.0625 111.4375 C-173.55396484 110.01244141 -173.55396484 110.01244141 -173.03515625 108.55859375 C-172 106 -172 106 -170 103 C-169.34 103 -168.68 103 -168 103 C-167.96132813 104.2684375 -167.96132813 104.2684375 -167.921875 105.5625 C-167.536764 113.26472003 -167.09689288 120.20266488 -161.18359375 125.68359375 C-157.07410919 128.16104687 -152.63176628 127.54418616 -148 127 C-140.92294429 125.15667386 -134.76372172 121.26161414 -128.56640625 117.48828125 C-126 116 -126 116 -123 115 C-123 114.34 -123 113.68 -123 113 C-121.27734375 111.484375 -121.27734375 111.484375 -118.9375 109.75 C-112.61139721 104.94849788 -107.03851715 100.20837718 -101.890625 94.14453125 C-99.80979852 91.78425493 -97.61639773 89.58299942 -95.375 87.375 C-91.12561841 83.17629247 -87.32240682 78.98361023 -84 74 C-83.34 74 -82.68 74 -82 74 C-81.59031982 73.11272217 -81.59031982 73.11272217 -81.17236328 72.20751953 C-80.0350875 70.06606855 -78.84719768 68.48592604 -77.2421875 66.6796875 C-76.70287598 66.06689941 -76.16356445 65.45411133 -75.60791016 64.82275391 C-75.0360498 64.17999512 -74.46418945 63.53723633 -73.875 62.875 C-68.06210512 56.25657886 -62.47228636 49.5154012 -57.1015625 42.53125 C-56.49054688 41.7371875 -55.87953125 40.943125 -55.25 40.125 C-54.71890625 39.42632812 -54.1878125 38.72765625 -53.640625 38.0078125 C-52 36 -52 36 -49.734375 33.9921875 C-47.78445311 32.18481102 -47.78445311 32.18481102 -47.96875 29.96875 C-49.34986835 27.33206952 -51.06629016 26.19435495 -53.5 24.5 C-56.89634947 22.1354529 -58.20146479 21.0428458 -59 17 C-44.00346289 12.33161259 -29.00448753 7.67384007 -13.97241211 3.12084961 C-13.09206299 2.85409424 -12.21171387 2.58733887 -11.3046875 2.3125 C-10.54140137 2.08175781 -9.77811523 1.85101563 -8.99169922 1.61328125 C-5.67952908 0.59340243 -3.56557126 0 0 0 Z " fill="#37B3C1" transform="translate(428,93)"/>
<path d="M0 0 C3.20629385 1.13771717 6.11034869 2.58069262 9.0625 4.25 C19.77040359 10.23589364 30.33383111 14.68737763 42.01074219 18.36914062 C44.68368636 19.21681953 47.3423532 20.10568076 50 21 C49.71906144 25.63548621 47.63167164 28.01730991 44.59375 31.27734375 C42.80145974 33.14970238 42.80145974 33.14970238 40.75 36.0625 C37.54721461 38.31900789 36.95982989 38.20370517 33.25 37.5625 C28.22974915 36.24607867 23.66104949 34.24846402 19 32 C17.48108562 31.32897275 15.96024455 30.66228958 14.4375 30 C11.43508708 28.69004672 8.60771663 27.22274776 5.75 25.625 C2.76076398 24.10885862 2.76076398 24.10885862 -0.5625 24.5 C-1.366875 24.995 -2.17125 25.49 -3 26 C-7.20694355 28.4606651 -11.1404108 30.56580002 -15.74194336 32.17456055 C-18.05196517 33.01899603 -20.30081741 33.96513166 -22.56640625 34.921875 C-27.97966139 37.09693695 -33.4410083 38.48068163 -39.125 39.75 C-40.08148438 39.97042969 -41.03796875 40.19085938 -42.0234375 40.41796875 C-44.34742341 40.95248551 -46.67279714 41.47970347 -49 42 C-49.19596 49.7513065 -49.11214034 56.54538704 -47 64 C-46.67929296 66.56565631 -46.44720949 69.12556001 -46.24609375 71.703125 C-45.67506743 77.03270401 -43.77059992 82.15108263 -42.1875 87.25 C-41.93935547 88.07113281 -41.69121094 88.89226562 -41.43554688 89.73828125 C-40.16446999 93.81995816 -38.78913537 97.53918099 -36.73828125 101.296875 C-35.28407422 104.03575267 -34.98210805 104.78529664 -35.25 108 C-35.4975 108.66 -35.745 109.32 -36 110 C-46.9065619 113.62115099 -46.9065619 113.62115099 -52 113 C-62.40044878 106.06636748 -64.37481213 83.35536873 -67 72 C-67.19142578 71.21592773 -67.38285156 70.43185547 -67.58007812 69.62402344 C-69.99330383 59.47689912 -70.18189256 49.39620248 -70.1875 39 C-70.19974609 37.77410156 -70.21199219 36.54820312 -70.22460938 35.28515625 C-70.22654297 34.11855469 -70.22847656 32.95195312 -70.23046875 31.75 C-70.23663208 30.16445312 -70.23663208 30.16445312 -70.24291992 28.546875 C-70 26 -70 26 -68 24 C-65.93139648 23.59277344 -65.93139648 23.59277344 -63.37109375 23.359375 C-62.42661377 23.26156738 -61.48213379 23.16375977 -60.5090332 23.06298828 C-59.49542725 22.95970215 -58.48182129 22.85641602 -57.4375 22.75 C-47.61211556 21.61168861 -38.92766728 19.50187465 -29.80029297 15.73779297 C-28.15279908 15.06261985 -26.48527843 14.43685811 -24.81640625 13.81640625 C-16.78802395 10.73512805 -6.18797351 6.18797351 0 0 Z " fill="#165D81" transform="translate(323,106)"/>
<path d="M0 0 C0.99 0.99 0.99 0.99 2 2 C1.65177421 5.74061897 0.77099465 9.31635888 0 13 C7.26 13 14.52 13 22 13 C21.15199097 17.24004517 20.05741374 20.74780889 18.5 24.75 C18.0565625 25.89984375 17.613125 27.0496875 17.15625 28.234375 C16 31 16 31 15 32 C13.58672053 32.15620555 12.1664541 32.25056173 10.74609375 32.31640625 C9.89208984 32.35830078 9.03808594 32.40019531 8.15820312 32.44335938 C7.26037109 32.48267578 6.36253906 32.52199219 5.4375 32.5625 C4.53580078 32.60568359 3.63410156 32.64886719 2.70507812 32.69335938 C0.47021515 32.79978142 -1.76476308 32.90179988 -4 33 C-4.21914063 33.93199219 -4.43828125 34.86398438 -4.6640625 35.82421875 C-6.88828323 44.7663094 -9.84134485 52.73655828 -14 61 C-14.65355469 62.34384766 -14.65355469 62.34384766 -15.3203125 63.71484375 C-18.03097371 69.24697936 -20.95922505 74.6430603 -24 80 C-24.66 80 -25.32 80 -26 80 C-26.268125 80.721875 -26.53625 81.44375 -26.8125 82.1875 C-28.01261623 85.02988053 -29.19186511 87.49642861 -31 90 C-31.680625 90.165 -32.36125 90.33 -33.0625 90.5 C-33.701875 90.665 -34.34125 90.83 -35 91 C-35.4640625 92.175625 -35.4640625 92.175625 -35.9375 93.375 C-37.30396025 96.75096062 -38.89167113 97.22381207 -42 99 C-43.35827971 100.64639965 -44.69254251 102.31295807 -46 104 C-49.4137931 107 -49.4137931 107 -53 107 C-53 107.66 -53 108.32 -53 109 C-54.98 109.495 -54.98 109.495 -57 110 C-57 110.66 -57 111.32 -57 112 C-58.58074564 112.81752303 -60.16471223 113.62881997 -61.75 114.4375 C-62.63171875 114.88996094 -63.5134375 115.34242188 -64.421875 115.80859375 C-66.68183657 116.85296993 -68.53491067 117.69380996 -71 118 C-73.9375 116.25 -73.9375 116.25 -77 114 C-78.16789062 113.30390625 -78.16789062 113.30390625 -79.359375 112.59375 C-86.57727193 108.23738618 -93.22174075 103.02423246 -99.44140625 97.34765625 C-100.97475676 95.90982049 -100.97475676 95.90982049 -103 95 C-105.0095568 92.06295544 -106 90.60777515 -106 87 C-103.41877492 86.15960114 -100.83536099 85.32749444 -98.25 84.5 C-97.15558594 84.14228516 -97.15558594 84.14228516 -96.0390625 83.77734375 C-95.33007812 83.55175781 -94.62109375 83.32617188 -93.890625 83.09375 C-93.24125977 82.88427734 -92.59189453 82.67480469 -91.92285156 82.45898438 C-90 82 -90 82 -86 82 C-83.59765625 83.609375 -83.59765625 83.609375 -81.0625 85.75 C-79.81146484 86.79414063 -79.81146484 86.79414063 -78.53515625 87.859375 C-77.28025391 88.91898438 -77.28025391 88.91898438 -76 90 C-72.91980651 92.97541308 -72.91980651 92.97541308 -69.0625 94 C-66.18948179 92.60702147 -63.64461364 90.78223963 -61 89 C-60.34 89 -59.68 89 -59 89 C-58.34 87.68 -57.68 86.36 -57 85 C-56.34 85 -55.68 85 -55 85 C-55 84.34 -55 83.68 -55 83 C-53.3777546 81.29006566 -51.70586575 79.62652316 -50 78 C-49.443125 77.401875 -48.88625 76.80375 -48.3125 76.1875 C-47 75 -47 75 -45 75 C-44.72671875 74.26007813 -44.4534375 73.52015625 -44.171875 72.7578125 C-43.07394342 70.17401352 -41.8646468 68.15807585 -40.25 65.875 C-33.89461931 56.44990873 -29.79532875 47.12622921 -26.39453125 36.33203125 C-22.40416089 23.82550693 -22.40416089 23.82550693 -18.4375 19.6875 C-16.35911764 17.48396774 -14.69370744 15.54056116 -13 13 C-12.34 13 -11.68 13 -11 13 C-10.7421875 12.42636719 -10.484375 11.85273438 -10.21875 11.26171875 C-8.8894836 8.79490707 -7.35595983 6.90831904 -5.5 4.8125 C-4.8915625 4.11769531 -4.283125 3.42289063 -3.65625 2.70703125 C-2 1 -2 1 0 0 Z " fill="#154974" transform="translate(394,158)"/>
<path d="M0 0 C0.2475 0.639375 0.495 1.27875 0.75 1.9375 C1.80283433 4.19303909 1.80283433 4.19303909 4.078125 4.62890625 C4.71234375 4.75136719 5.3465625 4.87382812 6 5 C4.86042491 11.11226641 3.70851991 13.73991055 -1 18 C-1.66 19.0725 -2.32 20.145 -3 21.25 C-5 24 -5 24 -7.75 24.875 C-8.4925 24.91625 -9.235 24.9575 -10 25 C-10.0825 26.11375 -10.165 27.2275 -10.25 28.375 C-10.62125 30.169375 -10.62125 30.169375 -11 32 C-12.9375 33.1875 -12.9375 33.1875 -15 34 C-15.28359375 34.58523437 -15.5671875 35.17046875 -15.859375 35.7734375 C-17.27588975 38.53855192 -19.08502269 40.27740856 -21.3125 42.4375 C-22.11558594 43.21996094 -22.91867187 44.00242188 -23.74609375 44.80859375 C-24.48988281 45.53175781 -25.23367188 46.25492188 -26 47 C-26.96042232 47.99799386 -27.91927258 48.99750916 -28.875 50 C-31 52 -31 52 -34 53 C-34.33 53.99 -34.66 54.98 -35 56 C-36.64821244 57.03013277 -38.31503702 58.03114628 -40 59 C-40.495 59.99 -40.495 59.99 -41 61 C-42.66666667 61.66666667 -44.33333333 62.33333333 -46 63 C-46.33 63.66 -46.66 64.32 -47 65 C-49.5625 65.625 -49.5625 65.625 -52 66 C-52 66.66 -52 67.32 -52 68 C-55.08046594 69.48519268 -58.16484002 70.96208605 -61.25 72.4375 C-62.12269531 72.85837891 -62.99539063 73.27925781 -63.89453125 73.71289062 C-64.73886719 74.11572266 -65.58320313 74.51855469 -66.453125 74.93359375 C-67.22817383 75.30540771 -68.00322266 75.67722168 -68.80175781 76.06030273 C-70.86918601 76.94408007 -72.8081676 77.52183446 -75 78 C-75.73734375 78.17917969 -76.4746875 78.35835938 -77.234375 78.54296875 C-85.62918117 79.93024604 -96.52096177 80.68213799 -104.140625 76.35546875 C-111.92263451 70.68244921 -113.83134492 65.22498588 -115.37841797 55.99145508 C-116.24279338 49.94150995 -115.09731716 46.08123817 -113.0625 40.4375 C-112.72347656 39.48746094 -112.38445312 38.53742188 -112.03515625 37.55859375 C-111 35 -111 35 -109 32 C-108.34 32 -107.68 32 -107 32 C-106.96132813 33.2684375 -106.96132813 33.2684375 -106.921875 34.5625 C-106.536764 42.26472003 -106.09689288 49.20266488 -100.18359375 54.68359375 C-96.07410919 57.16104687 -91.63176628 56.54418616 -87 56 C-79.92294429 54.15667386 -73.76372172 50.26161414 -67.56640625 46.48828125 C-65 45 -65 45 -62 44 C-62 43.34 -62 42.68 -62 42 C-59.69 42 -57.38 42 -55 42 C-54.7525 41.195625 -54.505 40.39125 -54.25 39.5625 C-53 37 -53 37 -51.25 36.25 C-50.5075 36.1675 -49.765 36.085 -49 36 C-47.39125 35.7215625 -47.39125 35.7215625 -45.75 35.4375 C-44.8425 35.293125 -43.935 35.14875 -43 35 C-43.66 34.34 -44.32 33.68 -45 33 C-44.38125 32.9175 -43.7625 32.835 -43.125 32.75 C-42.42375 32.5025 -41.7225 32.255 -41 32 C-40.57654297 31.00613281 -40.57654297 31.00613281 -40.14453125 29.9921875 C-39.76683594 29.33476562 -39.38914062 28.67734375 -39 28 C-36.94140625 27.4609375 -36.94140625 27.4609375 -34.5625 27.375 C-31.01332594 27.22297607 -30.1080045 27.072003 -27 25 C-26.34 25 -25.68 25 -25 25 C-21.52071486 21.9556255 -19.39153744 19.42761914 -18 15 C-17.01 15 -16.02 15 -15 15 C-15 14.34 -15 13.68 -15 13 C-13.48772933 11.6697891 -11.91330976 10.40972409 -10.3125 9.1875 C-6.60823991 6.30290598 -3.20781202 3.42166616 0 0 Z " fill="#174370" transform="translate(367,164)"/>
<path d="M0 0 C0.125 6.625 0.125 6.625 -1 10 C-0.86980581 12.0329115 -0.86980581 12.0329115 -0.5 14.125 C-0.335 15.40375 -0.17 16.6825 0 18 C-0.495 18.495 -0.495 18.495 -1 19 C-1.23701239 21.85877909 -1.42219182 24.69883297 -1.5625 27.5625 C-1.62727539 28.77196289 -1.62727539 28.77196289 -1.69335938 30.00585938 C-1.79975262 32.00368805 -1.90040888 34.0018207 -2 36 C-2.66 36 -3.32 36 -4 36 C-3.67 36.66 -3.34 37.32 -3 38 C-2.85001874 40.51507035 -2.76881058 42.98408466 -2.75 45.5 C-2.729375 46.18964844 -2.70875 46.87929687 -2.6875 47.58984375 C-2.671875 49.59375 -2.671875 49.59375 -3 53 C-3.99 53.66 -4.98 54.32 -6 55 C-8.00612399 53.04761147 -10.00492433 51.08862178 -12 49.125 C-12.57234375 48.56941406 -13.1446875 48.01382813 -13.734375 47.44140625 C-15.19450782 45.99865596 -16.60149298 44.5025626 -18 43 C-18 42.34 -18 41.68 -18 41 C-18.721875 41.721875 -19.44375 42.44375 -20.1875 43.1875 C-22.0209517 45.0209517 -23.87441701 46.83467078 -25.75 48.625 C-28.19004674 50.86533112 -28.19004674 50.86533112 -29 54 C-29.969375 54.639375 -30.93875 55.27875 -31.9375 55.9375 C-35.07131164 58.0480262 -35.52609926 58.75741837 -37 62 C-38.6222454 63.70993434 -40.29413425 65.37347684 -42 67 C-45.39884305 70.34828175 -48.67187034 73.776777 -51.875 77.3125 C-52.73996094 78.26640625 -53.60492188 79.2203125 -54.49609375 80.203125 C-57.21892942 83.24454518 -59.89055847 86.32520547 -62.52734375 89.44140625 C-64 91 -64 91 -67 93 C-66.875 90.1875 -66.875 90.1875 -66 87 C-64.03533587 85.93224776 -62.03144641 84.93446535 -60 84 C-58.94895617 82.36504293 -57.94011682 80.70116376 -57 79 C-55.515 78.505 -55.515 78.505 -54 78 C-52.97299556 75.67108904 -52.97299556 75.67108904 -52.3125 72.9375 C-52.06113281 72.01839844 -51.80976563 71.09929687 -51.55078125 70.15234375 C-51.36902344 69.44207031 -51.18726563 68.73179687 -51 68 C-51.9590625 67.5978125 -51.9590625 67.5978125 -52.9375 67.1875 C-55 66 -55 66 -56 63 C-58.31 64.98 -60.62 66.96 -63 69 C-62.67 67.02 -62.34 65.04 -62 63 C-61.40147217 62.89421631 -60.80294434 62.78843262 -60.1862793 62.67944336 C-57.68251714 61.90133392 -56.76016616 61.0571439 -55.01953125 59.12890625 C-54.49552734 58.55462891 -53.97152344 57.98035156 -53.43164062 57.38867188 C-52.89732422 56.78603516 -52.36300781 56.18339844 -51.8125 55.5625 C-50.99362305 54.6643457 -50.99362305 54.6643457 -50.15820312 53.74804688 C-47.25788617 50.60380598 -47.25788617 50.60380598 -45 47 C-44.34 47 -43.68 47 -43 47 C-42.75378906 46.43539062 -42.50757813 45.87078125 -42.25390625 45.2890625 C-40.78145746 42.60104072 -39.01695721 40.62682844 -36.9375 38.375 C-34.42602582 35.64407662 -31.92412895 32.91355869 -29.4765625 30.125 C-28.67992187 29.2175 -27.88328125 28.31 -27.0625 27.375 C-26.33160156 26.53710938 -25.60070312 25.69921875 -24.84765625 24.8359375 C-23 23 -23 23 -21 23 C-20.731875 22.360625 -20.46375 21.72125 -20.1875 21.0625 C-19 19 -19 19 -16 18 C-15.731875 17.29488281 -15.46375 16.58976562 -15.1875 15.86328125 C-13.54327293 11.8987469 -10.92293473 9.27933072 -8 6.1875 C-7.18015625 5.2912793 -7.18015625 5.2912793 -6.34375 4.37695312 C-2.26192857 0 -2.26192857 0 0 0 Z " fill="#1B9AAD" transform="translate(423,102)"/>
<path d="M0 0 C6.27 0 12.54 0 19 0 C20.33763775 2.99815358 21.6706834 5.99816143 23 9 C23.495 10.11375 23.99 11.2275 24.5 12.375 C26.142651 16.34473992 27.57551584 20.36607746 29.01171875 24.4140625 C30.01601911 27.19686834 30.01601911 27.19686834 31.8125 30.4375 C33 33 33 33 32.94140625 34.8359375 C31.50707932 38.13310397 28.87051302 39.99816233 26.125 42.1875 C25.58230469 42.63802734 25.03960937 43.08855469 24.48046875 43.55273438 C22.00179335 45.57385478 20.05916331 46.9802789 17 48 C15.60212641 44.65669864 14.20863213 41.31159825 12.81787109 37.96533203 C12.24372345 36.58566381 11.66842743 35.20647319 11.09228516 33.82763672 C10.14214376 31.55287781 9.1958141 29.27656107 8.25 27 C7.94441162 26.27047119 7.63882324 25.54094238 7.32397461 24.78930664 C5.11048036 19.44701002 5.11048036 19.44701002 4.48583984 16.91967773 C3.62531782 13.51953469 1.66448272 10.57989039 -0.0390625 7.53515625 C-1 5 -1 5 0 0 Z " fill="#193F6B" transform="translate(284,158)"/>
<path d="M0 0 C0.66 0.66 1.32 1.32 2 2 C1.65177421 5.74061897 0.77099465 9.31635888 0 13 C7.26 13 14.52 13 22 13 C21.15199097 17.24004517 20.05741374 20.74780889 18.5 24.75 C18.0565625 25.89984375 17.613125 27.0496875 17.15625 28.234375 C16 31 16 31 15 32 C13.58672053 32.15620555 12.1664541 32.25056173 10.74609375 32.31640625 C9.89208984 32.35830078 9.03808594 32.40019531 8.15820312 32.44335938 C7.26037109 32.48267578 6.36253906 32.52199219 5.4375 32.5625 C4.08495117 32.62727539 4.08495117 32.62727539 2.70507812 32.69335938 C0.47021515 32.79978142 -1.76476308 32.90179988 -4 33 C-4.26554687 34.07121094 -4.53109375 35.14242187 -4.8046875 36.24609375 C-5.16103168 37.64333805 -5.51782582 39.04046764 -5.875 40.4375 C-6.04902344 41.14455078 -6.22304688 41.85160156 -6.40234375 42.58007812 C-6.87351608 44.40368957 -7.43123057 46.20443229 -8 48 C-8.99 48.495 -8.99 48.495 -10 49 C-9.98952637 48.44014404 -9.97905273 47.88028809 -9.96826172 47.3034668 C-9.92666674 44.76485693 -9.90066315 42.2263188 -9.875 39.6875 C-9.85824219 38.80642578 -9.84148437 37.92535156 -9.82421875 37.01757812 C-9.81777344 36.17001953 -9.81132812 35.32246094 -9.8046875 34.44921875 C-9.79421387 33.66893311 -9.78374023 32.88864746 -9.77294922 32.0847168 C-9.87119141 29.6934152 -9.87119141 29.6934152 -12 27 C-14.05925139 26.27617533 -14.05925139 26.27617533 -16 26 C-17.20628008 28.33214148 -18.1654738 30.49642139 -19 33 C-19.66 33 -20.32 33 -21 33 C-20.67 33.99 -20.34 34.98 -20 36 C-20.33 36.99 -20.66 37.98 -21 39 C-21.66 39 -22.32 39 -23 39 C-23.268125 39.94875 -23.53625 40.8975 -23.8125 41.875 C-25 45 -25 45 -28 47 C-29.34823984 42.95528049 -28.07536868 40.14888472 -26.8125 36.25 C-26.60302734 35.5590625 -26.39355469 34.868125 -26.17773438 34.15625 C-24.06612976 27.48934404 -21.04518167 21.83959955 -16.375 16.5625 C-15.78460938 15.88316406 -15.19421875 15.20382813 -14.5859375 14.50390625 C-13 13 -13 13 -11 13 C-10.7421875 12.42636719 -10.484375 11.85273438 -10.21875 11.26171875 C-8.8894836 8.79490707 -7.35595983 6.90831904 -5.5 4.8125 C-4.8915625 4.11769531 -4.283125 3.42289063 -3.65625 2.70703125 C-2 1 -2 1 0 0 Z " fill="#20A2B2" transform="translate(394,158)"/>
<path d="M0 0 C0.886875 0.515625 1.77375 1.03125 2.6875 1.5625 C4.04055323 2.31450686 5.39486502 3.06425101 6.75 3.8125 C7.53632813 4.25207031 8.32265625 4.69164063 9.1328125 5.14453125 C19.03305599 10.63962053 28.93120187 14.53676245 39.69824219 17.93164062 C42.37118636 18.77931953 45.0298532 19.66818076 47.6875 20.5625 C47.40656144 25.19798621 45.31917164 27.57980991 42.28125 30.83984375 C40.48895974 32.71220238 40.48895974 32.71220238 38.4375 35.625 C35.23471461 37.88150789 34.64732989 37.76620517 30.9375 37.125 C25.91717668 35.80855966 21.34873553 33.81076378 16.6875 31.5625 C15.21013207 30.91256252 13.73094579 30.26674317 12.25 29.625 C7.31308536 27.43566153 2.49879775 25.01334896 -2.3125 22.5625 C-2.3125 22.2325 -2.3125 21.9025 -2.3125 21.5625 C5.01144366 21.28080986 5.01144366 21.28080986 8.6875 23.5625 C9.43 23.93375 10.1725 24.305 10.9375 24.6875 C11.515 24.97625 12.0925 25.265 12.6875 25.5625 C12.6875 24.9025 12.6875 24.2425 12.6875 23.5625 C13.6775 23.2325 14.6675 22.9025 15.6875 22.5625 C18.6875 27.3125 18.6875 27.3125 18.6875 29.5625 C19.51894531 29.52769531 20.35039062 29.49289063 21.20703125 29.45703125 C22.83705078 29.41642578 22.83705078 29.41642578 24.5 29.375 C25.57894531 29.34019531 26.65789062 29.30539063 27.76953125 29.26953125 C31.07394539 29.60129974 31.5908898 30.16367572 33.6875 32.5625 C34.6775 32.5625 35.6675 32.5625 36.6875 32.5625 C36.3575 31.5725 36.0275 30.5825 35.6875 29.5625 C37.0625 28.0625 37.0625 28.0625 38.6875 26.5625 C39.3475 26.5625 40.0075 26.5625 40.6875 26.5625 C40.0275 24.9125 39.3675 23.2625 38.6875 21.5625 C37.965625 21.706875 37.24375 21.85125 36.5 22 C32.59375 22.78125 32.59375 22.78125 28.6875 23.5625 C28.1925 22.0775 28.1925 22.0775 27.6875 20.5625 C28.3475 20.2325 29.0075 19.9025 29.6875 19.5625 C25.47527526 15.35027526 18.43028856 14.29875494 12.6875 13.5625 C12.6875 12.9025 12.6875 12.2425 12.6875 11.5625 C10.3775 11.8925 8.0675 12.2225 5.6875 12.5625 C5.6875 10.5825 5.6875 8.6025 5.6875 6.5625 C4.23013913 6.36758548 2.77155407 6.18180642 1.3125 6 C0.09433594 5.84337891 0.09433594 5.84337891 -1.1484375 5.68359375 C-3.36149186 5.38012672 -3.36149186 5.38012672 -5.3125 6.5625 C-5.6425 7.5525 -5.9725 8.5425 -6.3125 9.5625 C-8.6225 8.9025 -10.9325 8.2425 -13.3125 7.5625 C-11.6649116 6.20566249 -9.99333079 4.87793279 -8.3125 3.5625 C-7.3225 2.77875 -6.3325 1.995 -5.3125 1.1875 C-2.3125 -0.4375 -2.3125 -0.4375 0 0 Z " fill="#3EA7B1" transform="translate(325.3125,106.4375)"/>
<path d="M0 0 C-0.73431637 8.2670979 -1.84692296 16.4697372 -3 24.6875 C-3.17789063 25.96689453 -3.35578125 27.24628906 -3.5390625 28.56445312 C-4.02339717 32.04334951 -4.50978968 35.52192688 -5 39 C-5.16242188 40.24241455 -5.32484375 41.4848291 -5.4921875 42.76489258 C-5.94502497 45.64977205 -6.51457808 47.52429681 -8 50 C-8.495 47.525 -8.495 47.525 -9 45 C-8.34 45 -7.68 45 -7 45 C-7.01160156 44.27554688 -7.02320313 43.55109375 -7.03515625 42.8046875 C-7.08231311 37.75216677 -7.07377564 32.96621233 -6 28 C-6.66 27.67 -7.32 27.34 -8 27 C-7.01 27 -6.02 27 -5 27 C-5.25136719 26.18208984 -5.25136719 26.18208984 -5.5078125 25.34765625 C-7.17036334 19.19200916 -6.74816463 15.11857619 -5 9 C-7.31 10.65 -9.62 12.3 -12 14 C-12 13.01 -12 12.02 -12 11 C-21.28253876 10.61262976 -29.10457695 10.73638463 -37 16 C-37 15.01 -37 14.02 -37 13 C-37.66 12.34 -38.32 11.68 -39 11 C-29.29571439 7.69922258 -19.60280684 4.50042716 -9.72265625 1.76171875 C-3.42564103 0 -3.42564103 0 0 0 Z " fill="#4BC4CA" transform="translate(428,93)"/>
<path d="M0 0 C0.99 0.33 1.98 0.66 3 1 C3 1.99 3 2.98 3 4 C1.35 4 -0.3 4 -2 4 C-4.93092387 10.7845303 -4.93092387 10.7845303 -6 18 C-6.66 18 -7.32 18 -8 18 C-8.33 18.66 -8.66 19.32 -9 20 C-9.99 19.67 -10.98 19.34 -12 19 C-12.33 19.66 -12.66 20.32 -13 21 C-13.66 21 -14.32 21 -15 21 C-15.2475 21.78375 -15.495 22.5675 -15.75 23.375 C-17.21213565 26.44548487 -18.01882422 26.6449201 -21 28 C-22.01241685 29.32392972 -23.01439389 30.65599167 -24 32 C-24.66 32 -25.32 32 -26 32 C-25.34 33.32 -24.68 34.64 -24 36 C-25.4540625 36.680625 -25.4540625 36.680625 -26.9375 37.375 C-30.07079582 38.65786221 -30.07079582 38.65786221 -31 41 C-32.485 41.495 -32.485 41.495 -34 42 C-33.34 42.66 -32.68 43.32 -32 44 C-33.45706726 44.50367757 -34.91570096 45.00282556 -36.375 45.5 C-37.18710937 45.7784375 -37.99921875 46.056875 -38.8359375 46.34375 C-41 47 -41 47 -43 47 C-43.99 49.475 -43.99 49.475 -45 52 C-46.65 51.67 -48.3 51.34 -50 51 C-46.99584355 47.89893528 -43.88852769 45.01589067 -40.625 42.1875 C-37.03905944 39.02761178 -33.90054543 35.72035494 -30.8203125 32.07421875 C-28.7666406 29.73409047 -26.59279907 27.55986146 -24.375 25.375 C-20.12561841 21.17629247 -16.32240682 16.98361023 -13 12 C-12.34 12 -11.68 12 -11 12 C-10.731875 11.4225 -10.46375 10.845 -10.1875 10.25 C-8.13355719 6.35831888 -7.04022885 4.40793288 -2.8125 2.75 C-1.884375 2.5025 -0.95625 2.255 0 2 C0 1.34 0 0.68 0 0 Z " fill="#5C9FAD" transform="translate(357,155)"/>
<path d="M0 0 C0.66 0 1.32 0 2 0 C2.01417969 0.81082031 2.02835937 1.62164062 2.04296875 2.45703125 C2.35933563 9.8018732 3.56083193 15.31458415 6.94140625 21.85546875 C8 24 8 24 8 26 C4.94736336 26.98120464 3.05263664 26.98120464 0 26 C-0.33 26.66 -0.66 27.32 -1 28 C-3.0625 28.625 -3.0625 28.625 -5 29 C-5.36463732 27.25215171 -5.7163078 25.50159498 -6.0625 23.75 C-6.25972656 22.77546875 -6.45695313 21.8009375 -6.66015625 20.796875 C-6.99743409 18.0211171 -6.8898856 16.60317109 -6 14 C-5.70222656 13.11183594 -5.40445313 12.22367188 -5.09765625 11.30859375 C-4.75605469 10.36113281 -4.41445312 9.41367188 -4.0625 8.4375 C-3.72347656 7.48746094 -3.38445312 6.53742188 -3.03515625 5.55859375 C-2 3 -2 3 0 0 Z " fill="#14295D" transform="translate(258,196)"/>
<path d="M0 0 C5.93146032 1.18629206 10.40854843 6.56597306 14.671875 10.5703125 C17.01247003 12.681674 18.52030734 13.93306614 21.6875 14.375 C24.14983559 14.03910665 24.14983559 14.03910665 27 13 C27.99 13.33 28.98 13.66 30 14 C29.67 14.99 29.34 15.98 29 17 C25.04 17 21.08 17 17 17 C17 16.34 17 15.68 17 15 C16.01 15.33 15.02 15.66 14 16 C14 15.34 14 14.68 14 14 C13.21625 13.690625 12.4325 13.38125 11.625 13.0625 C9 12 9 12 7 11 C7 10.34 7 9.68 7 9 C5.35 8.67 3.7 8.34 2 8 C2 7.34 2 6.68 2 6 C0.948125 6.350625 -0.10375 6.70125 -1.1875 7.0625 C-4.7954681 7.94970527 -6.52632489 8.05262882 -10 7 C-10 6.67 -10 6.34 -10 6 C-8.02 5.67 -6.04 5.34 -4 5 C-3.67 4.01 -3.34 3.02 -3 2 C-2.01 1.34 -1.02 0.68 0 0 Z " fill="#1D2E5E" transform="translate(305,239)"/>
<path d="M0 0 C3.34354588 0.77618029 4.51559292 1.12771395 6.5 3.8125 C5.84 4.4725 5.18 5.1325 4.5 5.8125 C2.83157466 5.48808396 1.16519519 5.15310811 -0.5 4.8125 C-5.05460198 5.2001257 -8.61981094 6.37610222 -12.5 8.8125 C-13.46044102 10.88940578 -13.46044102 10.88940578 -13.5 12.8125 C-14.82 13.1425 -16.14 13.4725 -17.5 13.8125 C-17.83 12.8225 -18.16 11.8325 -18.5 10.8125 C-19.11875 11.328125 -19.7375 11.84375 -20.375 12.375 C-24.88101042 14.44776479 -28.70627283 13.58508127 -33.5 12.8125 C-30.59286931 10.87441287 -28.36762034 10.03147846 -25.0625 9 C-17.72106951 6.61537477 -7.28813458 -0.39043578 0 0 Z " fill="#307D8A" transform="translate(313.5,114.1875)"/>
<path d="M0 0 C0.66 0.66 1.32 1.32 2 2 C1.65177421 5.74061897 0.77099465 9.31635888 0 13 C7.26 13 14.52 13 22 13 C21 18 21 18 19 21 C19 19.02 19 17.04 19 15 C11.41 15 3.82 15 -4 15 C-5.33332095 12.3333581 -4.67102033 10.83319697 -4 8 C-4.66 8 -5.32 8 -6 8 C-6.33 8.99 -6.66 9.98 -7 11 C-8.62332967 12.38576923 -10.28724465 13.72641268 -12 15 C-12.33 14.34 -12.66 13.68 -13 13 C-12.34 13 -11.68 13 -11 13 C-10.7421875 12.42636719 -10.484375 11.85273438 -10.21875 11.26171875 C-8.8894836 8.79490707 -7.35595983 6.90831904 -5.5 4.8125 C-4.8915625 4.11769531 -4.283125 3.42289063 -3.65625 2.70703125 C-2 1 -2 1 0 0 Z " fill="#4DAEBA" transform="translate(394,158)"/>
<path d="M0 0 C-0.73431637 8.2670979 -1.84692296 16.4697372 -3 24.6875 C-3.17789062 25.96689453 -3.35578125 27.24628906 -3.5390625 28.56445312 C-4.02339717 32.04334951 -4.50978968 35.52192688 -5 39 C-5.24363281 40.86362183 -5.24363281 40.86362183 -5.4921875 42.76489258 C-5.94502497 45.64977205 -6.51457808 47.52429681 -8 50 C-8.33 48.35 -8.66 46.7 -9 45 C-8.34 45 -7.68 45 -7 45 C-7.01160156 44.27554688 -7.02320313 43.55109375 -7.03515625 42.8046875 C-7.08231311 37.75216677 -7.07377564 32.96621233 -6 28 C-6.66 27.67 -7.32 27.34 -8 27 C-7.01 27 -6.02 27 -5 27 C-5.16757812 26.46632813 -5.33515625 25.93265625 -5.5078125 25.3828125 C-7.24106597 19.04217639 -6.68367429 14.28933817 -5 8 C-4.66613229 6.66680037 -4.33261528 5.33351264 -4 4 C-5.65 4 -7.3 4 -9 4 C-9 3.34 -9 2.68 -9 2 C-5.62902617 0.50178941 -3.79557881 0 0 0 Z " fill="#47B1BC" transform="translate(428,93)"/>
<path d="M0 0 C0.33 1.32 0.66 2.64 1 4 C0.34 4 -0.32 4 -1 4 C-1.33 5.65 -1.66 7.3 -2 9 C-1.01 9.33 -0.02 9.66 1 10 C-0.98 10.99 -0.98 10.99 -3 12 C-3 11.34 -3 10.68 -3 10 C-6.6739599 13.37607126 -9.05406554 16.39120786 -11 21 C-11 21.66 -11 22.32 -11 23 C-11.99 23.33 -12.98 23.66 -14 24 C-14.639375 24.66 -15.27875 25.32 -15.9375 26 C-18.05674715 28.05502754 -19.13747914 28.59106845 -22 29 C-22 29.66 -22 30.32 -22 31 C-23.65 31.66 -25.3 32.32 -27 33 C-22.76067698 27.11205136 -18.15283013 21.63750957 -13.40551758 16.16040039 C-10.16253238 12.40309125 -7.0638079 8.59743726 -4.18359375 4.55078125 C-2.91076922 2.88308706 -1.51238258 1.45101053 0 0 Z " fill="#43A8B3" transform="translate(379,126)"/>
<path d="M0 0 C0.886875 0.515625 1.77375 1.03125 2.6875 1.5625 C4.24975556 2.41711367 5.81227591 3.27124339 7.375 4.125 C8.14199219 4.55941406 8.90898437 4.99382812 9.69921875 5.44140625 C11.01083202 6.18096029 12.34072027 6.88911013 13.6875 7.5625 C13.6875 8.5525 13.6875 9.5425 13.6875 10.5625 C14.6775 10.8925 15.6675 11.2225 16.6875 11.5625 C14.7075 12.5525 14.7075 12.5525 12.6875 13.5625 C12.6875 12.9025 12.6875 12.2425 12.6875 11.5625 C10.3775 11.8925 8.0675 12.2225 5.6875 12.5625 C5.6875 10.5825 5.6875 8.6025 5.6875 6.5625 C4.23013913 6.36758548 2.77155407 6.18180642 1.3125 6 C0.09433594 5.84337891 0.09433594 5.84337891 -1.1484375 5.68359375 C-3.36149186 5.38012672 -3.36149186 5.38012672 -5.3125 6.5625 C-5.6425 7.5525 -5.9725 8.5425 -6.3125 9.5625 C-8.6225 8.9025 -10.9325 8.2425 -13.3125 7.5625 C-11.6649116 6.20566249 -9.99333079 4.87793279 -8.3125 3.5625 C-7.3225 2.77875 -6.3325 1.995 -5.3125 1.1875 C-2.3125 -0.4375 -2.3125 -0.4375 0 0 Z " fill="#2A94A0" transform="translate(325.3125,106.4375)"/>
<path d="M0 0 C0.99 0.66 1.98 1.32 3 2 C0.27800739 7.89765066 -3.31704544 12.53485728 -8 17 C-12.37282846 21.25747807 -16.49267579 25.62797191 -20.421875 30.30078125 C-22 32 -22 32 -25 34 C-24.875 31.1875 -24.875 31.1875 -24 28 C-22.03533587 26.93224776 -20.03144641 25.93446535 -18 25 C-16.94895617 23.36504293 -15.94011682 21.70116376 -15 20 C-14.01 19.67 -13.02 19.34 -12 19 C-10.97549761 16.81862203 -10.97549761 16.81862203 -10 14 C-7.5386967 8.16491023 -4.69176492 4.26524084 0 0 Z " fill="#497C8A" transform="translate(381,161)"/>
<path d="M0 0 C0.99 0 1.98 0 3 0 C4.6875 2.5 4.6875 2.5 6 5 C5.030625 5.45375 4.06125 5.9075 3.0625 6.375 C-0.07079582 7.65786221 -0.07079582 7.65786221 -1 10 C-1.99 10.33 -2.98 10.66 -4 11 C-3.34 11.66 -2.68 12.32 -2 13 C-3.45706726 13.50367757 -4.91570096 14.00282556 -6.375 14.5 C-7.18710937 14.7784375 -7.99921875 15.056875 -8.8359375 15.34375 C-11 16 -11 16 -13 16 C-13.99 18.475 -13.99 18.475 -15 21 C-16.65 20.67 -18.3 20.34 -20 20 C-16.97582446 16.87827041 -13.84526359 13.9752373 -10.5625 11.125 C-7.64705217 8.57337678 -5.06616986 6.00732646 -2.625 3 C-1.325625 1.515 -1.325625 1.515 0 0 Z " fill="#2D7086" transform="translate(327,186)"/>
<path d="M0 0 C0.99 0.33 1.98 0.66 3 1 C2.566875 2.051875 2.566875 2.051875 2.125 3.125 C0.97866412 6.05452503 -0.02625654 9.00921653 -1 12 C-1.66 12 -2.32 12 -3 12 C-2.67 12.99 -2.34 13.98 -2 15 C-2.33 15.99 -2.66 16.98 -3 18 C-3.66 18 -4.32 18 -5 18 C-5.268125 18.94875 -5.53625 19.8975 -5.8125 20.875 C-7 24 -7 24 -10 26 C-11.35989821 21.92030536 -10.03153873 19.0545801 -8.75 15.125 C-8.53214844 14.41730469 -8.31429688 13.70960938 -8.08984375 12.98046875 C-6.37780844 7.60407717 -4.85795766 3.23863844 0 0 Z " fill="#19859C" transform="translate(376,179)"/>
<path d="M0 0 C1.65 0 3.3 0 5 0 C5 0.66 5 1.32 5 2 C8.63 2 12.26 2 16 2 C16 2.33 16 2.66 16 3 C18.64 3.33 21.28 3.66 24 4 C24 4.33 24 4.66 24 5 C21.20826945 5.02690104 18.41679652 5.04679053 15.625 5.0625 C14.43390625 5.07506836 14.43390625 5.07506836 13.21875 5.08789062 C7.2265625 5.11328125 7.2265625 5.11328125 5 4 C4.814375 5.9490625 4.814375 5.9490625 4.625 7.9375 C4.09471578 12.65030768 3.53827164 17.49577977 2 22 C1.34 22.33 0.68 22.66 0 23 C0 15.41 0 7.82 0 0 Z " fill="#248697" transform="translate(384,184)"/>
<path d="M0 0 C0.70125 0.07863281 1.4025 0.15726563 2.125 0.23828125 C4 0.6875 4 0.6875 6 2.6875 C6.33 2.0275 6.66 1.3675 7 0.6875 C9.5625 0.0625 9.5625 0.0625 12 -0.3125 C5.78429563 7.45713046 -4.84206869 9.78748842 -14 12.6875 C-14 11.6975 -14 10.7075 -14 9.6875 C-13.05125 9.501875 -12.1025 9.31625 -11.125 9.125 C-10.09375 8.650625 -9.0625 8.17625 -8 7.6875 C-6.68998504 4.18645468 -6.68998504 4.18645468 -6 0.6875 C-3.63106495 -0.49696753 -2.5933174 -0.31939755 0 0 Z " fill="#1D6D81" transform="translate(310,129.3125)"/>
<path d="M0 0 C-1 3 -1 3 -3.375 4.1875 C-6 5 -6 5 -9 5 C-9 6.32 -9 7.64 -9 9 C-8.34 9 -7.68 9 -7 9 C-6.67 9.66 -6.34 10.32 -6 11 C-5.01 11 -4.02 11 -3 11 C-3 11.99 -3 12.98 -3 14 C-2.34 14.33 -1.68 14.66 -1 15 C-1.66 15 -2.32 15 -3 15 C-3 16.65 -3 18.3 -3 20 C-3.66 19.67 -4.32 19.34 -5 19 C-5.17015625 18.08734375 -5.17015625 18.08734375 -5.34375 17.15625 C-6.26476185 14.13006821 -7.93669882 13.28457677 -10.5 11.5 C-14.82876712 8.48630137 -14.82876712 8.48630137 -15.78125 5.78125 C-15.8534375 5.1934375 -15.925625 4.605625 -16 4 C-14.08594633 3.32586789 -12.16863974 2.6609668 -10.25 2 C-9.18265625 1.62875 -8.1153125 1.2575 -7.015625 0.875 C-4 0 -4 0 0 0 Z " fill="#57BFC6" transform="translate(385,106)"/>
<path d="M0 0 C0.99 0.33 1.98 0.66 3 1 C2.01 1.495 2.01 1.495 1 2 C0.34444881 4.52733235 0.34444881 4.52733235 0 7 C-0.99 7.33 -1.98 7.66 -3 8 C-4.34919532 9.65385233 -5.68133728 11.321702 -7 13 C-10.4137931 16 -10.4137931 16 -14 16 C-14.33 15.01 -14.66 14.02 -15 13 C-15.99 13 -16.98 13 -18 13 C-17.67 11.35 -17.34 9.7 -17 8 C-16.01 7.67 -15.02 7.34 -14 7 C-13.67 7.66 -13.34 8.32 -13 9 C-12.01 9.33 -11.02 9.66 -10 10 C-9.79375 9.38125 -9.5875 8.7625 -9.375 8.125 C-7.4638235 5.17136359 -5.2667043 5.08890143 -2 4 C-0.57944932 1.99863756 -0.57944932 1.99863756 0 0 Z " fill="#1C3363" transform="translate(355,249)"/>
<path d="M0 0 C0.33 0.66 0.66 1.32 1 2 C-0.80124443 7.30366417 -2.90176567 10.10667739 -7 14 C-7.515625 14.9075 -8.03125 15.815 -8.5625 16.75 C-10 19 -10 19 -12.1875 19.8125 C-12.785625 19.874375 -13.38375 19.93625 -14 20 C-14 18 -14 18 -12 16 C-12.33 15.01 -12.66 14.02 -13 13 C-12.0625 9.8125 -12.0625 9.8125 -11 7 C-9.02 7 -7.04 7 -5 7 C-4.731875 6.030625 -4.46375 5.06125 -4.1875 4.0625 C-3.5996875 2.5465625 -3.5996875 2.5465625 -3 1 C-2.01 0.67 -1.02 0.34 0 0 Z " fill="#186F8C" transform="translate(372,169)"/>
<path d="M0 0 C0.66 0 1.32 0 2 0 C2.33 5.28 2.66 10.56 3 16 C0.69 16.33 -1.62 16.66 -4 17 C-4 16.34 -4 15.68 -4 15 C-4.66 14.67 -5.32 14.34 -6 14 C-5.38003999 12.2273959 -4.75384007 10.45697333 -4.125 8.6875 C-3.77695313 7.70136719 -3.42890625 6.71523437 -3.0703125 5.69921875 C-2 3 -2 3 0 0 Z " fill="#5B6C90" transform="translate(258,196)"/>
<path d="M0 0 C-0.8125 2.4375 -0.8125 2.4375 -2 5 C-2.99 5.33 -3.98 5.66 -5 6 C-5.6837045 7.32467746 -6.34964186 8.65863633 -7 10 C-7.99 10.66 -8.98 11.32 -10 12 C-11.65 10.68 -13.3 9.36 -15 8 C-13.68 7.01 -12.36 6.02 -11 5 C-11.66 4.01 -12.32 3.02 -13 2 C-11.68 2 -10.36 2 -9 2 C-8.67 1.34 -8.34 0.68 -8 0 C-2.55072464 -1.27536232 -2.55072464 -1.27536232 0 0 Z " fill="#16587B" transform="translate(357,192)"/>
<path d="M0 0 C0.99 1.485 0.99 1.485 2 3 C2.53625 3.78375 3.0725 4.5675 3.625 5.375 C5.12783752 8.24405345 5.17172232 9.82313715 5 13 C5.33 13.66 5.66 14.32 6 15 C5.67 15.66 5.34 16.32 5 17 C5.99 17 6.98 17 8 17 C8 20.3 8 23.6 8 27 C7.34 27.33 6.68 27.66 6 28 C6 27.34 6 26.68 6 26 C5.34 26 4.68 26 4 26 C-0.59225513 8.14350797 -0.59225513 8.14350797 0 0 Z " fill="#243862" transform="translate(256,169)"/>
<path d="M0 0 C0.33 0 0.66 0 1 0 C1.08076963 2.45898655 1.14037143 4.91533742 1.1875 7.375 C1.22520508 8.42300781 1.22520508 8.42300781 1.26367188 9.4921875 C1.29296875 11.5234375 1.29296875 11.5234375 1 15 C0.01 15.66 -0.98 16.32 -2 17 C-4 15.375 -4 15.375 -6 13 C-6.25 9.75 -6.25 9.75 -6 7 C-7.32 7 -8.64 7 -10 7 C-10 6.34 -10 5.68 -10 5 C-8.63875 5.1546875 -8.63875 5.1546875 -7.25 5.3125 C-3.80452774 5.34514586 -3.80452774 5.34514586 -1.6875 2.5 C-1.130625 1.675 -0.57375 0.85 0 0 Z " fill="#1E899B" transform="translate(419,140)"/>
<path d="M0 0 C3.25696479 0.41755959 4.63443291 0.63443291 7 3 C0.07 4.65 -6.86 6.3 -14 8 C-14.33 11.3 -14.66 14.6 -15 18 C-18 15 -18 15 -18.25 11.5 C-18 8 -18 8 -17 5 C-14.30893107 4.14428729 -11.74900524 3.46542209 -9 2.875 C-4.10883911 2.16681525 -4.10883911 2.16681525 0 0 Z " fill="#3D6680" transform="translate(288,140)"/>
<path d="M0 0 C1.32 0.33 2.64 0.66 4 1 C1.03 6.28 -1.94 11.56 -5 17 C-5.66 17 -6.32 17 -7 17 C-7.33 17.99 -7.66 18.98 -8 20 C-10 17 -10 17 -9.609375 14.7734375 C-9.32578125 13.98195312 -9.0421875 13.19046875 -8.75 12.375 C-8.47671875 11.57835937 -8.2034375 10.78171875 -7.921875 9.9609375 C-7 8 -7 8 -5 7 C-5.66 6.34 -6.32 5.68 -7 5 C-5.824375 4.87625 -5.824375 4.87625 -4.625 4.75 C-1.85250896 4.27193661 -1.85250896 4.27193661 -0.6875 1.9375 C-0.460625 1.298125 -0.23375 0.65875 0 0 Z " fill="#165375" transform="translate(375,221)"/>
<path d="M0 0 C0 0.33 0 0.66 0 1 C-4.455 1.495 -4.455 1.495 -9 2 C-9 2.99 -9 3.98 -9 5 C-13.29 5 -17.58 5 -22 5 C-22.33 13.58 -22.66 22.16 -23 31 C-23.33 31 -23.66 31 -24 31 C-24.0578304 26.54172074 -24.09353855 22.0835372 -24.125 17.625 C-24.14175781 16.35398438 -24.15851563 15.08296875 -24.17578125 13.7734375 C-24.18222656 12.56171875 -24.18867188 11.35 -24.1953125 10.1015625 C-24.21102295 8.42054443 -24.21102295 8.42054443 -24.22705078 6.70556641 C-24 4 -24 4 -22 2 C-19.62022545 1.53382893 -17.2189597 1.17432273 -14.8125 0.875 C-13.51957031 0.70742187 -12.22664063 0.53984375 -10.89453125 0.3671875 C-7.23360504 0.02202495 -3.67419287 -0.06671686 0 0 Z " fill="#7A9CAE" transform="translate(277,128)"/>
<path d="M0 0 C0.33 0.66 0.66 1.32 1 2 C0.69320313 2.60328125 0.38640625 3.2065625 0.0703125 3.828125 C-1.16980821 6.34457433 -1.20684986 7.96710487 -1.125 10.75 C-1.09792969 11.94882813 -1.09792969 11.94882813 -1.0703125 13.171875 C-1.04710937 13.77515625 -1.02390625 14.3784375 -1 15 C-4 15 -4 15 -7 14 C-7.33 13.34 -7.66 12.68 -8 12 C-10.02463255 11.34786708 -10.02463255 11.34786708 -12 11 C-10.92643323 9.84501103 -9.84070212 8.70132133 -8.75 7.5625 C-7.84507812 6.60537109 -7.84507812 6.60537109 -6.921875 5.62890625 C-5 4 -5 4 -2.828125 3.46484375 C-1.92320312 3.23474609 -1.92320312 3.23474609 -1 3 C-0.67 2.01 -0.34 1.02 0 0 Z " fill="#329CAC" transform="translate(385,169)"/>
<path d="M0 0 C1.32 0.66 2.64 1.32 4 2 C4 3.32 4 4.64 4 6 C4.66 6 5.32 6 6 6 C6 5.34 6 4.68 6 4 C6.99 4.33 7.98 4.66 9 5 C8.34 5 7.68 5 7 5 C7.103125 5.7425 7.20625 6.485 7.3125 7.25 C7 10 7 10 4.5 12.3125 C3.2625 13.1478125 3.2625 13.1478125 2 14 C0 13 0 13 -1.125 9.9375 C-1.41375 8.968125 -1.7025 7.99875 -2 7 C-1.34 6.67 -0.68 6.34 0 6 C0 4.02 0 2.04 0 0 Z " fill="#274067" transform="translate(300,192)"/>
<path d="M0 0 C7.32394366 -0.28169014 7.32394366 -0.28169014 11 2 C11.7425 2.37125 12.485 2.7425 13.25 3.125 C13.8275 3.41375 14.405 3.7025 15 4 C15 3.34 15 2.68 15 2 C15.99 1.67 16.98 1.34 18 1 C18.99 2.98 19.98 4.96 21 7 C12.47470954 7.99862405 7.12814826 5.55334185 0 1 C0 0.67 0 0.34 0 0 Z " fill="#4296A2" transform="translate(323,128)"/>
<path d="M0 0 C0.33 0.99 0.66 1.98 1 3 C-0.41882209 5.46426995 -1.45559206 6.75254185 -4.0625 7.9375 C-6.74771086 9.41003499 -7.10304168 11.159632 -8 14 C-11.16115776 12.63016497 -11.9927092 12.0109362 -14 9 C-9.38 6.03 -4.76 3.06 0 0 Z " fill="#294970" transform="translate(303,208)"/>
<path d="M0 0 C1.65 0 3.3 0 5 0 C4.9375 2.1875 4.9375 2.1875 4 5 C1.8282781 6.93157957 -0.52601047 8.48201687 -3 10 C-3 9.01 -3 8.02 -3 7 C-5.31 6.67 -7.62 6.34 -10 6 C-7.41697495 2.69946799 -5.00758523 2.60984993 -1 2 C-0.67 1.34 -0.34 0.68 0 0 Z " fill="#21CBD5" transform="translate(419,97)"/>
<path d="M0 0 C1.4540625 0.0309375 1.4540625 0.0309375 2.9375 0.0625 C2.12152344 0.660625 1.30554688 1.25875 0.46484375 1.875 C-2.15500709 4.50132417 -2.46851122 6.52551938 -2.62109375 10.1875 C-2.60653588 12.14619518 -2.56534072 14.10484085 -2.5 16.0625 C-2.49419922 17.04734375 -2.48839844 18.0321875 -2.48242188 19.046875 C-2.39937409 23.96330376 -1.93572137 27.49577339 -0.0625 32.0625 C-0.4375 34.375 -0.4375 34.375 -1.0625 36.0625 C-1.7225 36.0625 -2.3825 36.0625 -3.0625 36.0625 C-3.8952936 31.71121547 -4.19106996 27.5956643 -4.1953125 23.16796875 C-4.19660156 21.88341797 -4.19789063 20.59886719 -4.19921875 19.27539062 C-4.19712402 18.61514893 -4.1950293 17.95490723 -4.19287109 17.2746582 C-4.18746915 15.23836986 -4.19285919 13.2022976 -4.19921875 11.16601562 C-4.19792969 9.88791016 -4.19664062 8.60980469 -4.1953125 7.29296875 C-4.19418457 6.12145264 -4.19305664 4.94993652 -4.19189453 3.74291992 C-4.00721514 -0.08273106 -3.88339483 0.07925296 0 0 Z " fill="#183F61" transform="translate(258.0625,131.9375)"/>
<path d="M0 0 C0.28875 0.61875 0.5775 1.2375 0.875 1.875 C1.93720042 4.13325765 1.93720042 4.13325765 4 6 C4 9 4 9 3 12 C1.0625 12.5625 1.0625 12.5625 -1 13 C-1.66 13.66 -2.32 14.32 -3 15 C-3.66 14.67 -4.32 14.34 -5 14 C-5 14.99 -5 15.98 -5 17 C-5.66 17 -6.32 17 -7 17 C-5.98387374 13.52823527 -4.77832394 10.47427812 -2.9375 7.375 C-1.42236525 4.73573302 -0.47068969 2.94181057 0 0 Z " fill="#135D7B" transform="translate(364,204)"/>
<path d="M0 0 C0.93423645 3.01031744 1.04449911 3.86650268 0 7 C-2 8 -2 8 -4 9 C-5.70496537 10.62746694 -7.37897032 12.28891311 -9 14 C-9.33 13.34 -9.66 12.68 -10 12 C-10.66 11.67 -11.32 11.34 -12 11 C-10.56564079 9.5385774 -9.12739414 8.08096951 -7.6875 6.625 C-6.88699219 5.81289062 -6.08648437 5.00078125 -5.26171875 4.1640625 C-3 2 -3 2 0 0 Z " fill="#4B8E9F" transform="translate(340,174)"/>
<path d="M0 0 C0.33 0.99 0.66 1.98 1 3 C0.21625 3.2475 -0.5675 3.495 -1.375 3.75 C-4.32317108 5.15389099 -4.9024777 6.00675737 -6 9 C-6.99 9 -7.98 9 -9 9 C-9.33 9.99 -9.66 10.98 -10 12 C-13 7.375 -13 7.375 -13 4 C-8.71 2.68 -4.42 1.36 0 0 Z " fill="#394A74" transform="translate(301,241)"/>
<path d="M0 0 C0.33 0.66 0.66 1.32 1 2 C1.99 2.66 2.98 3.32 4 4 C2.54293274 4.50367757 1.08429904 5.00282556 -0.375 5.5 C-1.59316406 5.91765625 -1.59316406 5.91765625 -2.8359375 6.34375 C-5 7 -5 7 -7 7 C-7.66 8.65 -8.32 10.3 -9 12 C-10.65 11.67 -12.3 11.34 -14 11 C-12.83528482 9.83528482 -11.66968898 8.67143879 -10.5 7.51171875 C-9.46350877 6.46712993 -8.44353994 5.40597888 -7.4375 4.33203125 C-3.32155582 0 -3.32155582 0 0 0 Z " fill="#3F748A" transform="translate(321,195)"/>
<path d="M0 0 C1.65 0 3.3 0 5 0 C5 0.66 5 1.32 5 2 C8.63 2 12.26 2 16 2 C16 2.33 16 2.66 16 3 C18.64 3.33 21.28 3.66 24 4 C24 4.33 24 4.66 24 5 C16.41 5 8.82 5 1 5 C0.67 3.35 0.34 1.7 0 0 Z " fill="#188FA2" transform="translate(384,184)"/>
<path d="M0 0 C5.625 -0.25 5.625 -0.25 9 2 C9 3.32 9 4.64 9 6 C10.32 6 11.64 6 13 6 C13 7.65 13 9.3 13 11 C11.84775972 10.07038578 10.70340824 9.1309875 9.5625 8.1875 C8.92441406 7.66542969 8.28632813 7.14335937 7.62890625 6.60546875 C6 5 6 5 5 2 C3.8553125 3.175625 3.8553125 3.175625 2.6875 4.375 C0 7 0 7 -3 9 C-2.01 6.03 -1.02 3.06 0 0 Z " fill="#4C9CAA" transform="translate(400,141)"/>
<path d="M0 0 C0.70125 0.07863281 1.4025 0.15726563 2.125 0.23828125 C4 0.6875 4 0.6875 6 2.6875 C6.33 2.0275 6.66 1.3675 7 0.6875 C9.5625 0.0625 9.5625 0.0625 12 -0.3125 C8.6207338 3.46432693 6.04900708 5.72066886 1 6.6875 C-1.375 5.8125 -1.375 5.8125 -3 4.6875 C-3 3.6975 -3 2.7075 -3 1.6875 C-3.99 1.3575 -4.98 1.0275 -6 0.6875 C-3.63106495 -0.49696753 -2.5933174 -0.31939755 0 0 Z " fill="#38879C" transform="translate(310,129.3125)"/>
<path d="M0 0 C1.2065625 0.0309375 1.2065625 0.0309375 2.4375 0.0625 C-1.0625 3.5625 -1.0625 3.5625 -4.5625 7.0625 C-5.5525 6.7325 -6.5425 6.4025 -7.5625 6.0625 C-7.8925 6.3925 -8.2225 6.7225 -8.5625 7.0625 C-9.5525 7.0625 -10.5425 7.0625 -11.5625 7.0625 C-11.5625 7.7225 -11.5625 8.3825 -11.5625 9.0625 C-12.2225 8.7325 -12.8825 8.4025 -13.5625 8.0625 C-12.9025 7.0725 -12.2425 6.0825 -11.5625 5.0625 C-11.8925 4.4025 -12.2225 3.7425 -12.5625 3.0625 C-11.60537109 2.86333984 -11.60537109 2.86333984 -10.62890625 2.66015625 C-9.80261719 2.48355469 -8.97632813 2.30695313 -8.125 2.125 C-7.30128906 1.95097656 -6.47757812 1.77695313 -5.62890625 1.59765625 C-2.92413664 0.89717716 -2.95121226 0.07198079 0 0 Z " fill="#165474" transform="translate(280.5625,126.9375)"/>
<path d="M0 0 C-0.33 2.64 -0.66 5.28 -1 8 C-2.65 8.33 -4.3 8.66 -6 9 C-6.33 8.01 -6.66 7.02 -7 6 C-7.66 6 -8.32 6 -9 6 C-9 4.68 -9 3.36 -9 2 C-5.62902617 0.50178941 -3.79557881 0 0 0 Z " fill="#24BECB" transform="translate(385,109)"/>
<path d="M0 0 C0.61875 0.350625 1.2375 0.70125 1.875 1.0625 C2.57625 1.371875 3.2775 1.68125 4 2 C4.66 1.67 5.32 1.34 6 1 C5.45276317 4.37462715 4.9451 6.08235 3 9 C-0.125 10.1875 -0.125 10.1875 -3 11 C-3.33 10.34 -3.66 9.68 -4 9 C-3.22265625 6.8359375 -3.22265625 6.8359375 -2.0625 4.375 C-1.68222656 3.55773437 -1.30195313 2.74046875 -0.91015625 1.8984375 C-0.60980469 1.27195313 -0.30945313 0.64546875 0 0 Z " fill="#1F385F" transform="translate(323,216)"/>
<path d="M0 0 C-0.70436248 8.04456097 -1.81468505 16.01350895 -3 24 C-3.33 24 -3.66 24 -4 24 C-3.67 17.07 -3.34 10.14 -3 3 C-4.98 3 -6.96 3 -9 3 C-6.01800145 0.01800145 -4.21244839 0 0 0 Z " fill="#6BBEC1" transform="translate(428,93)"/>
<path d="M0 0 C1 2 1 2 0.36328125 4.12890625 C0.01652344 4.93199219 -0.33023437 5.73507813 -0.6875 6.5625 C-1.02136719 7.36816406 -1.35523438 8.17382812 -1.69921875 9.00390625 C-3 11 -3 11 -7 12 C-7 8.7 -7 5.4 -7 2 C-4.69 1.34 -2.38 0.68 0 0 Z " fill="#186A88" transform="translate(383,208)"/>
<path d="M0 0 C0.66 0.33 1.32 0.66 2 1 C-1.76355588 9.85171523 -1.76355588 9.85171523 -7 12 C-7.99 12 -8.98 12 -10 12 C-10.33 10.68 -10.66 9.36 -11 8 C-8 6 -8 6 -5.8125 6.375 C-5.214375 6.58125 -4.61625 6.7875 -4 7 C-3.67 5.35 -3.34 3.7 -3 2 C-2.01 2 -1.02 2 0 2 C0 1.34 0 0.68 0 0 Z " fill="#1F798A" transform="translate(396,147)"/>
<path d="M0 0 C0.66 0.66 1.32 1.32 2 2 C1.34 2 0.68 2 0 2 C-0.08507812 2.58652344 -0.17015625 3.17304688 -0.2578125 3.77734375 C-1.21001522 6.62894031 -2.56348889 7.67010903 -4.875 9.5625 C-7.85867582 12.02572639 -7.85867582 12.02572639 -10.6328125 14.71484375 C-12 16 -12 16 -14 16 C-13 13 -13 13 -10 11 C-8.79549696 8.44816596 -8.79549696 8.44816596 -8 6 C-7.01 6 -6.02 6 -5 6 C-5 5.34 -5 4.68 -5 4 C-3.37373596 2.61767557 -1.7074998 1.28062485 0 0 Z " fill="#1F738E" transform="translate(357,173)"/>
<path d="M0 0 C1.32 0.66 2.64 1.32 4 2 C2.68 2 1.36 2 0 2 C-0.12375 2.639375 -0.2475 3.27875 -0.375 3.9375 C-0.58125 4.618125 -0.7875 5.29875 -1 6 C-1.99 6.495 -1.99 6.495 -3 7 C-3.33 7.99 -3.66 8.98 -4 10 C-6.31 9.34 -8.62 8.68 -11 8 C-7.45960866 5.0843836 -3.8373228 2.49872182 0 0 Z " fill="#4A9AA9" transform="translate(323,106)"/>
<path d="M0 0 C0.66 0.66 1.32 1.32 2 2 C0.75 4.4375 0.75 4.4375 -1 7 C-2.0209375 7.2475 -2.0209375 7.2475 -3.0625 7.5 C-3.701875 7.665 -4.34125 7.83 -5 8 C-6.15521502 10.47130918 -6.15521502 10.47130918 -7 13 C-7.99 13.495 -7.99 13.495 -9 14 C-8.67 12.35 -8.34 10.7 -8 9 C-7.34 9 -6.68 9 -6 9 C-5.7525 7.88625 -5.505 6.7725 -5.25 5.625 C-4 2 -4 2 -1.875 0.5625 C-1.25625 0.376875 -0.6375 0.19125 0 0 Z " fill="#425870" transform="translate(364,241)"/>
<path d="M0 0 C1.32 0 2.64 0 4 0 C4 3 4 3 2.5390625 4.60546875 C1.90742188 5.12753906 1.27578125 5.64960938 0.625 6.1875 C-0.00148438 6.71730469 -0.62796875 7.24710938 -1.2734375 7.79296875 C-3 9 -3 9 -5 9 C-5.66 10.32 -6.32 11.64 -7 13 C-7.99 13 -8.98 13 -10 13 C-9.34 12.01 -8.68 11.02 -8 10 C-7.34 10 -6.68 10 -6 10 C-6 9.34 -6 8.68 -6 8 C-5.34 8 -4.68 8 -4 8 C-3.896875 7.4225 -3.79375 6.845 -3.6875 6.25 C-2.87465516 3.58978053 -1.93155261 2.00309159 0 0 Z " fill="#1C6885" transform="translate(339,189)"/>
<path d="M0 0 C0.66 0.33 1.32 0.66 2 1 C2.42336795 3.68133037 2.74093569 6.30295545 3 9 C3.18281161 10.50057861 3.37006683 12.00062489 3.5625 13.5 C3.706875 14.655 3.85125 15.81 4 17 C1.73725135 14.73725135 1.07338058 12.97142905 -0.0625 10 C-1.41920836 6.45044525 -1.41920836 6.45044525 -3 3 C-2.01 2.01 -1.02 1.02 0 0 Z " fill="#405674" transform="translate(291,172)"/>
<path d="M0 0 C1.53445094 3.06890187 0.54984289 5.70094266 0 9 C-0.66 9 -1.32 9 -2 9 C-2.33 9.66 -2.66 10.32 -3 11 C-3.99 10.67 -4.98 10.34 -6 10 C-6.33 10.66 -6.66 11.32 -7 12 C-6.39288519 7.87161932 -5.12477683 4.59577618 -3 1 C-2.01 0.67 -1.02 0.34 0 0 Z " fill="#2B93A3" transform="translate(351,164)"/>
<path d="M0 0 C4.72224516 1.53472968 9.35855331 3.23945126 14 5 C13.67 5.99 13.34 6.98 13 8 C8.61667943 7.17812739 4.32059823 6.09845718 0 5 C0.66 4.34 1.32 3.68 2 3 C1.34 2.67 0.68 2.34 0 2 C0 1.34 0 0.68 0 0 Z " fill="#3DA2A9" transform="translate(339,115)"/>
<path d="M0 0 C0.99 0.66 1.98 1.32 3 2 C2.00269864 4.4932534 1.34925469 5.77467439 -0.9375 7.25 C-3 8 -3 8 -6 8 C-6 8.99 -6 9.98 -6 11 C-6.66 10.67 -7.32 10.34 -8 10 C-5.83735988 6.01618925 -3.28788824 3.11016455 0 0 Z " fill="#277C92" transform="translate(381,161)"/>
<path d="M0 0 C-2.55440415 3.61139896 -2.55440415 3.61139896 -5 5 C-8.75107732 5.14751428 -12.31070671 4.65257202 -16 4 C-13.21769572 2.14513048 -11.15636393 1.27537888 -8 0.3125 C-6.700625 -0.09548828 -6.700625 -0.09548828 -5.375 -0.51171875 C-3 -1 -3 -1 0 0 Z " fill="#337383" transform="translate(296,123)"/>
<path d="M0 0 C1.0828125 0.495 1.0828125 0.495 2.1875 1 C6.23988396 2.44084763 8.94027493 2.35324169 13 1 C13.99 1.33 14.98 1.66 16 2 C15.67 2.99 15.34 3.98 15 5 C11.04 5 7.08 5 3 5 C3 4.34 3 3.68 3 3 C2.01 3.33 1.02 3.66 0 4 C-0.33 3.01 -0.66 2.02 -1 1 C-0.67 0.67 -0.34 0.34 0 0 Z " fill="#102659" transform="translate(319,251)"/>
<path d="M0 0 C0.93065133 2.60582371 1.14917407 3.64198224 0.0625 6.25 C-0.4634375 7.11625 -0.4634375 7.11625 -1 8 C-1.598125 7.814375 -2.19625 7.62875 -2.8125 7.4375 C-5.16408762 6.77906313 -5.16408762 6.77906313 -8 8 C-7.6875 6.0625 -7.6875 6.0625 -7 4 C-6.01 3.67 -5.02 3.34 -4 3 C-4 2.34 -4 1.68 -4 1 C-2 0 -2 0 0 0 Z " fill="#1A2F5C" transform="translate(343,240)"/>
<path d="M0 0 C0.66 0.33 1.32 0.66 2 1 C1.1875 3.4375 1.1875 3.4375 0 6 C-0.99 6.33 -1.98 6.66 -3 7 C-3.69937532 8.31647119 -4.36729133 9.65022151 -5 11 C-5.99 11.495 -5.99 11.495 -7 12 C-7.20140476 8.37471432 -6.85776765 6.13498292 -5 3 C-3.35 3 -1.7 3 0 3 C0 2.01 0 1.02 0 0 Z " fill="#356780" transform="translate(355,191)"/>
<path d="M0 0 C0.33 0.99 0.66 1.98 1 3 C-2.03797468 8.62587904 -2.03797468 8.62587904 -5.25 9.875 C-5.8275 9.91625 -6.405 9.9575 -7 10 C-7 8 -7 8 -5 6 C-5.33 5.01 -5.66 4.02 -6 3 C-3.375 0 -3.375 0 0 0 Z " fill="#166480" transform="translate(365,179)"/>
<path d="M0 0 C1.32 0 2.64 0 4 0 C5.32229189 2.64458379 5.09677194 4.67761301 5.0625 7.625 C5.05347656 8.62789062 5.04445313 9.63078125 5.03515625 10.6640625 C5.02355469 11.43492187 5.01195312 12.20578125 5 13 C4.34 13 3.68 13 3 13 C3.061875 12.071875 3.12375 11.14375 3.1875 10.1875 C3.29936957 7.04545578 3.29936957 7.04545578 1.625 5.1875 C-0.00086797 3.93012827 -0.00086797 3.93012827 -2 3 C-1.34 2.01 -0.68 1.02 0 0 Z " fill="#2E4271" transform="translate(277,194)"/>
<path d="M0 0 C-0.9375 2.4375 -0.9375 2.4375 -3 5 C-5.98877701 5.7524935 -8.92545953 5.92909865 -12 6 C-4.89473684 -1.63157895 -4.89473684 -1.63157895 0 0 Z " fill="#334867" transform="translate(336,248)"/>
<path d="M0 0 C0.66 0.33 1.32 0.66 2 1 C-2.95 6.28 -7.9 11.56 -13 17 C-13.33 16.34 -13.66 15.68 -14 15 C-13.3125 13 -13.3125 13 -12 11 C-11.10087891 10.58621094 -11.10087891 10.58621094 -10.18359375 10.1640625 C-7.39226212 8.67601809 -5.80274074 6.76986419 -3.75 4.375 C-3.04359375 3.55773437 -2.3371875 2.74046875 -1.609375 1.8984375 C-1.07828125 1.27195313 -0.5471875 0.64546875 0 0 Z " fill="#25879E" transform="translate(374,154)"/>
<path d="M0 0 C0.33 0.99 0.66 1.98 1 3 C0.0925 3.28875 -0.815 3.5775 -1.75 3.875 C-4.32202908 4.76531776 -6.61346766 5.71494413 -9 7 C-8.67 5.02 -8.34 3.04 -8 1 C-5.07175348 0.02391783 -3.04386724 -0.08226668 0 0 Z " fill="#13265D" transform="translate(338,264)"/>
<path d="M0 0 C0.66 0.33 1.32 0.66 2 1 C1.67 4.96 1.34 8.92 1 13 C-0.32 12.01 -1.64 11.02 -3 10 C-2.25 3.375 -2.25 3.375 0 0 Z " fill="#1A2B4D" transform="translate(258,196)"/>
<path d="M0 0 C0.33 0 0.66 0 1 0 C2.567713 7.66816143 2.567713 7.66816143 1.17578125 10.93359375 C0.0625 12.5625 0.0625 12.5625 -2 15 C-2.66 14.67 -3.32 14.34 -4 14 C-3.79503906 13.32453125 -3.59007812 12.6490625 -3.37890625 11.953125 C-3.10949219 11.06109375 -2.84007812 10.1690625 -2.5625 9.25 C-2.16224609 7.92742187 -2.16224609 7.92742187 -1.75390625 6.578125 C-1.11531506 4.39434165 -0.53224167 2.21164502 0 0 Z " fill="#458393" transform="translate(369,190)"/>
<path d="M0 0 C0.33 0 0.66 0 1 0 C1.144375 1.0725 1.28875 2.145 1.4375 3.25 C1.88262501 6.76730179 1.88262501 6.76730179 2.625 9.1875 C3.08224336 11.39750957 2.68352789 12.87346879 2 15 C-0.75005456 11.05426955 -1.73294663 7.8069607 -2 3 C-1.34 2.01 -0.68 1.02 0 0 Z " fill="#384F77" transform="translate(275,173)"/>
<path d="M0 0 C0.66 0 1.32 0 2 0 C2.93065133 2.60582371 3.14917407 3.64198224 2.0625 6.25 C1.5365625 7.11625 1.5365625 7.11625 1 8 C-0.65 8 -2.3 8 -4 8 C-3.40312566 4.65750371 -2.26396123 2.53563658 0 0 Z " fill="#43B6C4" transform="translate(374,136)"/>
<path d="M0 0 C0.33 0.66 0.66 1.32 1 2 C2.65 1.67 4.3 1.34 6 1 C6 2.32 6 3.64 6 5 C2.67465243 6.10844919 0.37817425 5.84454356 -3 5 C-3 4.01 -3 3.02 -3 2 C-2.01 2 -1.02 2 0 2 C0 1.34 0 0.68 0 0 Z " fill="#182B5B" transform="translate(299,232)"/>
<path d="M0 0 C0.66 0 1.32 0 2 0 C2.061875 0.94875 2.12375 1.8975 2.1875 2.875 C2.455625 3.90625 2.72375 4.9375 3 6 C5.40952023 7.24714403 5.40952023 7.24714403 8 8 C8.99 9.485 8.99 9.485 10 11 C8.68 11 7.36 11 6 11 C6 10.01 6 9.02 6 8 C4.68 8.33 3.36 8.66 2 9 C-0.29013653 5.5647952 -0.17842973 4.014669 0 0 Z " fill="#132552" transform="translate(255,226)"/>
<path d="M0 0 C0.33 1.32 0.66 2.64 1 4 C-5.625 7.125 -5.625 7.125 -9 6 C-9.66 5.34 -10.32 4.68 -11 4 C-9.68 4 -8.36 4 -7 4 C-6.67 3.01 -6.34 2.02 -6 1 C-3.525 1.99 -3.525 1.99 -1 3 C-0.67 2.01 -0.34 1.02 0 0 Z " fill="#455378" transform="translate(287,211)"/>
<path d="M0 0 C0.33 1.32 0.66 2.64 1 4 C0.34 4 -0.32 4 -1 4 C-1.33 5.65 -1.66 7.3 -2 9 C-1.01 9.33 -0.02 9.66 1 10 C-0.98 10.99 -0.98 10.99 -3 12 C-3.66 11.01 -4.32 10.02 -5 9 C-5.66 8.67 -6.32 8.34 -7 8 C-4.79020692 5.18060883 -2.59937954 2.46941056 0 0 Z " fill="#69C2C7" transform="translate(379,126)"/>
<path d="M0 0 C2.0625 0.75 2.0625 0.75 4 2 C4.33 2.99 4.66 3.98 5 5 C4.67 5.66 4.34 6.32 4 7 C1.03 6.505 1.03 6.505 -2 6 C-2 4.35 -2 2.7 -2 1 C-1.34 0.67 -0.68 0.34 0 0 Z " fill="#10265B" transform="translate(307,257)"/>
<path d="M0 0 C2.96175123 0.61277612 4.38058783 1.25372522 7 3 C7.6875 5.125 7.6875 5.125 8 7 C4.65980694 6.40353695 2.49529367 5.31705841 0 3 C0 2.01 0 1.02 0 0 Z " fill="#1A2A50" transform="translate(292,250)"/>
<path d="M0 0 C0.99 0 1.98 0 3 0 C3.33 2.64 3.66 5.28 4 8 C2.68 8 1.36 8 0 8 C-0.79953138 4.71303767 -1.09658936 3.28976808 0 0 Z " fill="#1C2E53" transform="translate(283,206)"/>
<path d="M0 0 C2.2477975 2.05233685 3.0022242 3.00667261 4 6 C1.36 6 -1.28 6 -4 6 C-4 5.01 -4 4.02 -4 3 C-3.34 3 -2.68 3 -2 3 C-2 2.34 -2 1.68 -2 1 C-1.34 0.67 -0.68 0.34 0 0 Z " fill="#1B91A3" transform="translate(340,129)"/>
<path d="M0 0 C2.31 0.33 4.62 0.66 7 1 C7 1.66 7 2.32 7 3 C7.969375 3.268125 8.93875 3.53625 9.9375 3.8125 C10.948125 4.204375 11.95875 4.59625 13 5 C13.33 5.99 13.66 6.98 14 8 C10.76171886 7.34048737 8.19450407 6.16784772 5.3125 4.5625 C4.52488281 4.13066406 3.73726563 3.69882812 2.92578125 3.25390625 C1 2 1 2 0 0 Z " fill="#505A7D" transform="translate(312,268)"/>
<path d="M0 0 C3.4375 0.8125 3.4375 0.8125 7 2 C7.33 2.99 7.66 3.98 8 5 C4.62182575 5.84454356 2.32534757 6.10844919 -1 5 C-0.67 3.35 -0.34 1.7 0 0 Z " fill="#15879D" transform="translate(312,114)"/>
<path d="M0 0 C0.93423645 3.01031744 1.04449911 3.86650268 0 7 C-1.65 7.33 -3.3 7.66 -5 8 C-5.33 7.01 -5.66 6.02 -6 5 C-4.02 3.35 -2.04 1.7 0 0 Z " fill="#398397" transform="translate(340,174)"/>
<path d="M0 0 C-2.57784846 2.64752004 -4.91648098 4.94432065 -8 7 C-8.33 5.68 -8.66 4.36 -9 3 C-8.01 3 -7.02 3 -6 3 C-6 2.01 -6 1.02 -6 0 C-3 -1 -3 -1 0 0 Z " fill="#44808F" transform="translate(381,169)"/>
<path d="M0 0 C0.66 0.66 1.32 1.32 2 2 C1.7578125 4.3828125 1.7578125 4.3828125 1.125 7.125 C0.92132813 8.03507813 0.71765625 8.94515625 0.5078125 9.8828125 C0.34023438 10.58148438 0.17265625 11.28015625 0 12 C-0.33 12 -0.66 12 -1 12 C-1.66 8.7 -2.32 5.4 -3 2 C-2.01 1.34 -1.02 0.68 0 0 Z " fill="#4399A1" transform="translate(394,158)"/>
<path d="M0 0 C0.33 0 0.66 0 1 0 C1.12375 1.051875 1.2475 2.10375 1.375 3.1875 C1.82992066 6.8852232 1.82992066 6.8852232 3.125 9.6875 C4.11341176 12.29973109 3.95398577 13.42423842 3 16 C2.34 16 1.68 16 1 16 C-0.12862175 10.63904667 -0.09688221 5.44693314 0 0 Z " fill="#122C51" transform="translate(254,152)"/>
<path d="M0 0 C0.33 0 0.66 0 1 0 C1.08076963 2.45898655 1.14037143 4.91533742 1.1875 7.375 C1.22520508 8.42300781 1.22520508 8.42300781 1.26367188 9.4921875 C1.29296875 11.5234375 1.29296875 11.5234375 1 15 C0.01 15.66 -0.98 16.32 -2 17 C-2.66 16.01 -3.32 15.02 -4 14 C-3.01 14 -2.02 14 -1 14 C-1.01160156 13.24074219 -1.02320313 12.48148438 -1.03515625 11.69921875 C-1.04417969 10.70535156 -1.05320312 9.71148437 -1.0625 8.6875 C-1.07410156 7.70136719 -1.08570313 6.71523437 -1.09765625 5.69921875 C-1 3 -1 3 0 0 Z " fill="#53949B" transform="translate(419,140)"/>
<path d="M0 0 C-0.99 0.495 -0.99 0.495 -2 1 C-2.33 1.99 -2.66 2.98 -3 4 C-6.5625 5.1875 -6.5625 5.1875 -10 6 C-10 5.01 -10 4.02 -10 3 C-3.375 -1.125 -3.375 -1.125 0 0 Z " fill="#378596" transform="translate(313,115)"/>
<path d="M0 0 C2.97 0.495 2.97 0.495 6 1 C5.01 1.33 4.02 1.66 3 2 C2.67 2.99 2.34 3.98 2 5 C-1.1967 6.37001429 -3.69903842 5.8252404 -7 5 C-7 4.67 -7 4.34 -7 4 C-5.02 3.67 -3.04 3.34 -1 3 C-0.67 2.01 -0.34 1.02 0 0 Z " fill="#0F2354" transform="translate(302,241)"/>
<path d="M0 0 C0.66 0.33 1.32 0.66 2 1 C2 1.99 2 2.98 2 4 C-0.57213134 5.61949011 -1.67669159 6.04408751 -4.75 5.625 C-5.4925 5.41875 -6.235 5.2125 -7 5 C-4.88437775 2.67281553 -2.94982021 1.14186589 0 0 Z " fill="#162C50" transform="translate(313,228)"/>
<path d="M0 0 C8.57142857 -0.14285714 8.57142857 -0.14285714 12 1 C12 2.32 12 3.64 12 5 C9.15449988 4.33989524 6.47674001 3.48275034 3.75 2.4375 C3.04359375 2.16808594 2.3371875 1.89867187 1.609375 1.62109375 C1.07828125 1.41613281 0.5471875 1.21117187 0 1 C0 0.67 0 0.34 0 0 Z " fill="#4EA0AB" transform="translate(336,135)"/>
<path d="M0 0 C0.928125 0.20625 1.85625 0.4125 2.8125 0.625 C1.0625 2.625 1.0625 2.625 -1.1875 4.625 C-2.5075 4.625 -3.8275 4.625 -5.1875 4.625 C-5.5175 3.635 -5.8475 2.645 -6.1875 1.625 C-3.1875 -0.375 -3.1875 -0.375 0 0 Z " fill="#1BABB5" transform="translate(359.1875,125.375)"/>
<path d="M0 0 C0 0.33 0 0.66 0 1 C-4.95 1 -9.9 1 -15 1 C-15.33 0.34 -15.66 -0.32 -16 -1 C-10.76703134 -2.88386872 -5.26675717 -1.11719091 0 0 Z " fill="#2C3D64" transform="translate(287,242)"/>
<path d="M0 0 C0.99 0.33 1.98 0.66 3 1 C2.34 1 1.68 1 1 1 C1.04125 2.216875 1.0825 3.43375 1.125 4.6875 C1.13754508 8.21894127 0.59998217 10.80003566 -1 14 C-1.33 14 -1.66 14 -2 14 C-2.21192221 8.80790596 -1.5912689 4.873261 0 0 Z " fill="#3CA2A9" transform="translate(412,172)"/>
<path d="M0 0 C0.66 0 1.32 0 2 0 C2 0.99 2 1.98 2 3 C3.32 3 4.64 3 6 3 C6 3.66 6 4.32 6 5 C6.99 5.33 7.98 5.66 9 6 C7.375 6.8125 7.375 6.8125 5 7 C2.75390165 5.53181864 0.97621323 3.84147142 -1 2 C-0.67 1.34 -0.34 0.68 0 0 Z " fill="#4B5977" transform="translate(259,234)"/>
<path d="M0 0 C0.99 0.33 1.98 0.66 3 1 C2.34 2.32 1.68 3.64 1 5 C0.34 5 -0.32 5 -1 5 C-1.33 5.99 -1.66 6.98 -2 8 C-2.66 7.01 -3.32 6.02 -4 5 C-3.67 4.01 -3.34 3.02 -3 2 C-2.01 2 -1.02 2 0 2 C0 1.34 0 0.68 0 0 Z " fill="#4B7188" transform="translate(369,233)"/>
<path d="M0 0 C1.32 0.33 2.64 0.66 4 1 C3.02526874 2.66926454 2.04510211 4.33535642 1.0625 6 C0.24458984 7.3921875 0.24458984 7.3921875 -0.58984375 8.8125 C-1.05519531 9.534375 -1.52054687 10.25625 -2 11 C-2.33 11 -2.66 11 -3 11 C-3.2025236 7.35457517 -2.84727108 5.15122713 -1 2 C-0.67 1.34 -0.34 0.68 0 0 Z " fill="#527F96" transform="translate(375,221)"/>
<path d="M0 0 C0.66 0 1.32 0 2 0 C1.67 1.65 1.34 3.3 1 5 C1.66 5.33 2.32 5.66 3 6 C3 6.66 3 7.32 3 8 C5.475 8.99 5.475 8.99 8 10 C6.1875 10.625 6.1875 10.625 4 11 C0.73577293 8.82384862 0.55425796 8.51125915 -0.25 4.9375 C-0.42015625 4.22464844 -0.5903125 3.51179687 -0.765625 2.77734375 C-0.84296875 2.19082031 -0.9203125 1.60429687 -1 1 C-0.67 0.67 -0.34 0.34 0 0 Z " fill="#515A7B" transform="translate(267,208)"/>
<path d="M0 0 C2.16295027 2.16295027 2.5534013 3.05244857 3 6 C2.67 6.99 2.34 7.98 2 9 C1.01 9.33 0.02 9.66 -1 10 C-1.125 2.25 -1.125 2.25 0 0 Z " fill="#217489" transform="translate(371,188)"/>
<path d="M0 0 C0.66 0.33 1.32 0.66 2 1 C-0.64 3.64 -3.28 6.28 -6 9 C-7 6 -7 6 -6 3 C-3.0625 1.25 -3.0625 1.25 0 0 Z " fill="#7392A0" transform="translate(363,186)"/>
<path d="M0 0 C0.33 0.99 0.66 1.98 1 3 C1.66 3 2.32 3 3 3 C3 4.32 3 5.64 3 7 C1.35 7.33 -0.3 7.66 -2 8 C-2 4.79604584 -1.25664978 2.90600261 0 0 Z " fill="#102959" transform="translate(276,185)"/>
<path d="M0 0 C-2.77079887 3.80984844 -6.62868145 4.06840752 -11 5 C-11 4.01 -11 3.02 -11 2 C-7.17679443 0.57741188 -4.08718695 -0.24042276 0 0 Z " fill="#4A7A96" transform="translate(307,137)"/>
<path d="M0 0 C1.32 0 2.64 0 4 0 C4.33 1.32 4.66 2.64 5 4 C4.360625 4.12375 3.72125 4.2475 3.0625 4.375 C2.0415625 4.684375 2.0415625 4.684375 1 5 C0.67 5.66 0.34 6.32 0 7 C-0.93423645 3.98968256 -1.04449911 3.13349732 0 0 Z " fill="#3CC0CA" transform="translate(385,105)"/>
<path d="M0 0 C0 3 0 3 -1 5 C-1.66 5 -2.32 5 -3 5 C-3.12375 5.61875 -3.2475 6.2375 -3.375 6.875 C-4 9 -4 9 -6 11 C-5.63076923 4.6 -5.63076923 4.6 -2.4375 1.5625 C-1.633125 1.046875 -0.82875 0.53125 0 0 Z " fill="#378591" transform="translate(376,179)"/>
<path d="M0 0 C0.99 0.33 1.98 0.66 3 1 C3 1.99 3 2.98 3 4 C1.35 4 -0.3 4 -2 4 C-2.66 5.65 -3.32 7.3 -4 9 C-4.33 9 -4.66 9 -5 9 C-5 7.35 -5 5.7 -5 4 C-3.35 3.34 -1.7 2.68 0 2 C0 1.34 0 0.68 0 0 Z " fill="#379BAA" transform="translate(357,155)"/>
<path d="M0 0 C0.99 0.66 1.98 1.32 3 2 C2.34 3.65 1.68 5.3 1 7 C-0.32 6.67 -1.64 6.34 -3 6 C-2.625 3.5625 -2.625 3.5625 -2 1 C-1.34 0.67 -0.68 0.34 0 0 Z " fill="#42BCCB" transform="translate(380,129)"/>
<path d="M0 0 C1.2065625 0.0309375 1.2065625 0.0309375 2.4375 0.0625 C1.4475 0.5575 1.4475 0.5575 0.4375 1.0625 C0.4375 1.7225 0.4375 2.3825 0.4375 3.0625 C-4.0175 4.5475 -4.0175 4.5475 -8.5625 6.0625 C-8.5625 5.4025 -8.5625 4.7425 -8.5625 4.0625 C-6.92618108 3.01357762 -5.25764137 2.01343297 -3.5625 1.0625 C-2.5625 0.0625 -2.5625 0.0625 0 0 Z " fill="#444F70" transform="translate(336.5625,266.9375)"/>
<path d="M0 0 C1.27875 0.103125 2.5575 0.20625 3.875 0.3125 C4.95394531 0.39951172 4.95394531 0.39951172 6.0546875 0.48828125 C8 1 8 1 10 4 C6.6868604 5.04127245 5.39801692 5.18574123 2.1875 3.6875 C1.465625 3.130625 0.74375 2.57375 0 2 C0 1.34 0 0.68 0 0 Z " fill="#223563" transform="translate(312,248)"/>
<path d="M0 0 C0.33 0.66 0.66 1.32 1 2 C1.66 2 2.32 2 3 2 C5.1519437 5.22791555 5.20086443 6.28400809 5 10 C4.67 9.34 4.34 8.68 4 8 C3.34 8 2.68 8 2 8 C0.23537317 4.91190305 0 3.76687864 0 0 Z " fill="#4A5C7D" transform="translate(283,159)"/>
<path d="M0 0 C0.33 0.66 0.66 1.32 1 2 C0.22265625 4.1640625 0.22265625 4.1640625 -0.9375 6.625 C-1.31777344 7.44226563 -1.69804687 8.25953125 -2.08984375 9.1015625 C-2.39019531 9.72804687 -2.69054687 10.35453125 -3 11 C-3.97608217 8.07175348 -4.08226668 6.04386724 -4 3 C-3.34 3 -2.68 3 -2 3 C-2 2.34 -2 1.68 -2 1 C-1.34 0.67 -0.68 0.34 0 0 Z " fill="#42778D" transform="translate(383,208)"/>
<path d="M0 0 C0.33 0 0.66 0 1 0 C1.28571429 8.57142857 1.28571429 8.57142857 -1 12 C-1.33 12 -1.66 12 -2 12 C-1.85831863 10.56208484 -1.71148957 9.1246763 -1.5625 7.6875 C-1.48128906 6.88699219 -1.40007812 6.08648437 -1.31640625 5.26171875 C-1 3 -1 3 0 0 Z " fill="#468C97" transform="translate(386,195)"/>
<path d="M0 0 C0 3.20395416 -0.74335022 5.09399739 -2 8 C-2.99 8 -3.98 8 -5 8 C-5 8.66 -5 9.32 -5 10 C-5.66 10 -6.32 10 -7 10 C-5.33248852 6.05860922 -2.77289351 3.2107188 0 0 Z " fill="#82C3C9" transform="translate(369,138)"/>
<path d="M0 0 C2.4375 0.75 2.4375 0.75 4.4375 2.75 C-1.6171875 3.7265625 -1.6171875 3.7265625 -3.5625 3.75 C-4.2225 3.09 -4.8825 2.43 -5.5625 1.75 C-2.5625 -0.25 -2.5625 -0.25 0 0 Z " fill="#396F84" transform="translate(290.5625,140.25)"/>
<path d="M0 0 C0 4.38968456 -2.12805101 5.76905739 -5 9 C-5.33 7.68 -5.66 6.36 -6 5 C-4.02 3.35 -2.04 1.7 0 0 Z " fill="#4DBCCB" transform="translate(386,138)"/>
<path d="M0 0 C1.65 0 3.3 0 5 0 C5 1.32 5 2.64 5 4 C3.35 4 1.7 4 0 4 C0 2.68 0 1.36 0 0 Z " fill="#25ADBC" transform="translate(365,127)"/>
<path d="M0 0 C0.598125 0.20625 1.19625 0.4125 1.8125 0.625 C2.1425 1.945 2.4725 3.265 2.8125 4.625 C-1.74134615 4.99423077 -1.74134615 4.99423077 -4 3.125 C-4.391875 2.63 -4.78375 2.135 -5.1875 1.625 C-2.1875 -0.375 -2.1875 -0.375 0 0 Z " fill="#122656" transform="translate(317.1875,265.375)"/>
<path d="M0 0 C0.99 0.66 1.98 1.32 3 2 C0.94766315 4.2477975 -0.00667261 5.0022242 -3 6 C-3 4.35 -3 2.7 -3 1 C-2.01 0.67 -1.02 0.34 0 0 Z " fill="#0F385E" transform="translate(348,234)"/>
<path d="M0 0 C0.33 0 0.66 0 1 0 C1 2.31 1 4.62 1 7 C0.01 6.67 -0.98 6.34 -2 6 C-2 6.99 -2 7.98 -2 9 C-2.66 9 -3.32 9 -4 9 C-2.94124926 5.59687262 -1.99097846 2.98646769 0 0 Z " fill="#618D9E" transform="translate(361,212)"/>
<path d="M0 0 C2.83374881 3.20336822 3.5205537 5.78087253 4 10 C1.24049934 7.50754779 -0.62030099 5.79699009 -1 2 C-0.67 1.34 -0.34 0.68 0 0 Z " fill="#456378" transform="translate(309,174)"/>
<path d="M0 0 C0.33 0 0.66 0 1 0 C1.33 3.3 1.66 6.6 2 10 C1.01 9.34 0.02 8.68 -1 8 C-1.25 4.4375 -1.25 4.4375 -1 1 C-0.67 0.67 -0.34 0.34 0 0 Z " fill="#617C95" transform="translate(273,162)"/>
<path d="M0 0 C-0.33 0.99 -0.66 1.98 -1 3 C-3.0625 3.6875 -3.0625 3.6875 -5 4 C-5 4.66 -5 5.32 -5 6 C-6.65 6.66 -8.3 7.32 -10 8 C-3.56521739 0 -3.56521739 0 0 0 Z " fill="#50A4A9" transform="translate(362,151)"/>
<path d="M0 0 C0.66 0.66 1.32 1.32 2 2 C1.01 2.33 0.02 2.66 -1 3 C-1.309375 3.66 -1.61875 4.32 -1.9375 5 C-3 7 -3 7 -5.125 7.75 C-6.053125 7.87375 -6.053125 7.87375 -7 8 C-5.08864614 4.46399535 -3.37357234 2.21027154 0 0 Z " fill="#1D8DA0" transform="translate(386,142)"/>
<path d="M0 0 C2.9375 0.75 2.9375 0.75 6 2 C6.875 4.125 6.875 4.125 7 6 C4.69 5.67 2.38 5.34 0 5 C0.66 4.34 1.32 3.68 2 3 C1.34 2.67 0.68 2.34 0 2 C0 1.34 0 0.68 0 0 Z " fill="#4FACB7" transform="translate(339,115)"/>
<path d="M0 0 C0.99 0.66 1.98 1.32 3 2 C2.67 2.99 2.34 3.98 2 5 C2.66 5.33 3.32 5.66 4 6 C3.01 6.33 2.02 6.66 1 7 C0.34 6.67 -0.32 6.34 -1 6 C-1.625 3.9375 -1.625 3.9375 -2 2 C-1.34 2 -0.68 2 0 2 C0 1.34 0 0.68 0 0 Z " fill="#293C64" transform="translate(303,256)"/>
<path d="M0 0 C0.33 0.99 0.66 1.98 1 3 C1.66 3.33 2.32 3.66 3 4 C1.02 4.66 -0.96 5.32 -3 6 C-3.66666667 4.66666667 -4.33333333 3.33333333 -5 2 C-3.35 1.34 -1.7 0.68 0 0 Z " fill="#223468" transform="translate(317,225)"/>
<path d="M0 0 C4.95 0.99 4.95 0.99 10 2 C9.01 3.485 9.01 3.485 8 5 C4.5625 4.1875 4.5625 4.1875 1 3 C0.67 2.01 0.34 1.02 0 0 Z " fill="#112050" transform="translate(269,214)"/>
<path d="M0 0 C0.28875 0.61875 0.5775 1.2375 0.875 1.875 C1.93720042 4.13325765 1.93720042 4.13325765 4 6 C3.34 6.66 2.68 7.32 2 8 C0.68 8 -0.64 8 -2 8 C-1.34 5.36 -0.68 2.72 0 0 Z " fill="#397A8C" transform="translate(364,204)"/>
<path d="M0 0 C0.33 0.99 0.66 1.98 1 3 C-0.75 4.5625 -0.75 4.5625 -3 6 C-4.32 5.67 -5.64 5.34 -7 5 C-4.69 3.35 -2.38 1.7 0 0 Z " fill="#567182" transform="translate(303,208)"/>
<path d="M0 0 C0.33 0 0.66 0 1 0 C1.59732819 2.76264289 2 5.16032769 2 8 C1.01 8.33 0.02 8.66 -1 9 C-1.09765625 2.84765625 -1.09765625 2.84765625 -1 1 C-0.67 0.67 -0.34 0.34 0 0 Z " fill="#1B2F5C" transform="translate(266,200)"/>
<path d="M0 0 C0.99 0.33 1.98 0.66 3 1 C2.34 1 1.68 1 1 1 C1 2.65 1 4.3 1 6 C0.01 6.495 0.01 6.495 -1 7 C-1.99 6.34 -2.98 5.68 -4 5 C-2.68 3.35 -1.36 1.7 0 0 Z " fill="#1F3861" transform="translate(306,196)"/>
<path d="M0 0 C1.60725635 3.21451269 1.05748185 6.43612536 1 10 C0.01 10.495 0.01 10.495 -1 11 C-2.23076923 4.6 -2.23076923 4.6 -1.0625 1.5625 C-0.711875 1.046875 -0.36125 0.53125 0 0 Z " fill="#122756" transform="translate(263,186)"/>
<path d="M0 0 C0.66 0 1.32 0 2 0 C2 3.96 2 7.92 2 12 C1.67 12 1.34 12 1 12 C0.63762737 10.37681021 0.28534843 8.7513642 -0.0625 7.125 C-0.25972656 6.22007813 -0.45695312 5.31515625 -0.66015625 4.3828125 C-1 2 -1 2 0 0 Z " fill="#2AA6B7" transform="translate(422,109)"/>
<path d="M0 0 C0.66 0 1.32 0 2 0 C0.4169423 4.2742558 -2.50568404 6.26531794 -6 9 C-6 6 -6 6 -4.625 4.3125 C-3 3 -3 3 -1 3 C-0.67 2.01 -0.34 1.02 0 0 Z " fill="#23C1CD" transform="translate(414,107)"/>
<path d="M0 0 C0.94875 0.350625 1.8975 0.70125 2.875 1.0625 C1.885 2.5475 1.885 2.5475 0.875 4.0625 C-0.775 3.7325 -2.425 3.4025 -4.125 3.0625 C-4.455 2.0725 -4.785 1.0825 -5.125 0.0625 C-3.125 -0.9375 -3.125 -0.9375 0 0 Z " fill="#45D4D8" transform="translate(407.125,99.9375)"/>
<path d="M0 0 C0.33 1.32 0.66 2.64 1 4 C-0.65 5.32 -2.3 6.64 -4 8 C-4.66 7.67 -5.32 7.34 -6 7 C-5.01 6.67 -4.02 6.34 -3 6 C-1.84478498 3.52869082 -1.84478498 3.52869082 -1 1 C-0.67 0.67 -0.34 0.34 0 0 Z " fill="#4C667F" transform="translate(352,227)"/>
<path d="M0 0 C-2.97 2.475 -2.97 2.475 -6 5 C-6 3.35 -6 1.7 -6 0 C-3.50907189 -1.24546405 -2.58919267 -0.7767578 0 0 Z " fill="#556884" transform="translate(313,197)"/>
<path d="M0 0 C0.33 0.99 0.66 1.98 1 3 C-0.98 3.99 -0.98 3.99 -3 5 C-3 5.66 -3 6.32 -3 7 C-3.99 7 -4.98 7 -6 7 C-6 6.01 -6 5.02 -6 4 C-4.02 3.34 -2.04 2.68 0 2 C0 1.34 0 0.68 0 0 Z " fill="#1D8AA0" transform="translate(399,142)"/>
<path d="M0 0 C0.66 0 1.32 0 2 0 C3.38232443 1.62626404 4.71937515 3.2925002 6 5 C4.35 5.66 2.7 6.32 1 7 C0.67 4.69 0.34 2.38 0 0 Z " fill="#217690" transform="translate(295,121)"/>
<path d="M0 0 C0.99 0.33 1.98 0.66 3 1 C1.515 3.475 1.515 3.475 0 6 C-1 5 -2 4 -3 3 C-2.01 2.01 -1.02 1.02 0 0 Z " fill="#2B3F71" transform="translate(333,247)"/>
<path d="M0 0 C0.33 0.99 0.66 1.98 1 3 C0 4 0 4 -3.0625 4.0625 C-4.5165625 4.0315625 -4.5165625 4.0315625 -6 4 C-6 3.34 -6 2.68 -6 2 C-4.02 1.34 -2.04 0.68 0 0 Z " fill="#475570" transform="translate(301,241)"/>
<path d="M0 0 C2.475 0.99 2.475 0.99 5 2 C5 2.99 5 3.98 5 5 C3.35 5 1.7 5 0 5 C0.33 4.34 0.66 3.68 1 3 C0.34 2.34 -0.32 1.68 -1 1 C-0.67 0.67 -0.34 0.34 0 0 Z " fill="#4E5A74" transform="translate(305,239)"/>
<path d="M0 0 C2 3 2 3 1.75 4.9375 C0.97936717 7.05674028 0.0643413 9.01322958 -1 11 C-2.25 3.375 -2.25 3.375 0 0 Z " fill="#051646" transform="translate(253,211)"/>
<path d="M0 0 C1.32 0 2.64 0 4 0 C3.67 1.32 3.34 2.64 3 4 C1.35 3.67 -0.3 3.34 -2 3 C-1.34 2.01 -0.68 1.02 0 0 Z " fill="#3E6683" transform="translate(309,203)"/>
<path d="M0 0 C2 2 2 2 2.1953125 3.9453125 C2.13020833 5.96354167 2.06510417 7.98177083 2 10 C1.34 10 0.68 10 0 10 C0 6.66666667 0 3.33333333 0 0 Z " fill="#102756" transform="translate(280,197)"/>
<path d="M0 0 C0.66 0.33 1.32 0.66 2 1 C1.6875 2.9375 1.6875 2.9375 1 5 C0.01 5.33 -0.98 5.66 -2 6 C-2 4.35 -2 2.7 -2 1 C-1.34 0.67 -0.68 0.34 0 0 Z " fill="#4C687F" transform="translate(315,190)"/>
<path d="M0 0 C0.33 0.66 0.66 1.32 1 2 C0.67 2.99 0.34 3.98 0 5 C-0.804375 5.12375 -1.60875 5.2475 -2.4375 5.375 C-3.7059375 5.684375 -3.7059375 5.684375 -5 6 C-5.33 6.66 -5.66 7.32 -6 8 C-5.67 6.68 -5.34 5.36 -5 4 C-4.0409375 3.8453125 -4.0409375 3.8453125 -3.0625 3.6875 C-2.381875 3.460625 -1.70125 3.23375 -1 3 C-0.67 2.01 -0.34 1.02 0 0 Z " fill="#278798" transform="translate(385,169)"/>
<path d="M0 0 C2.6875 -0.3125 2.6875 -0.3125 5 0 C5 0.66 5 1.32 5 2 C3.02 2.33 1.04 2.66 -1 3 C-1 3.99 -1 4.98 -1 6 C-1.66 5.67 -2.32 5.34 -3 5 C-1.8125 2.5 -1.8125 2.5 0 0 Z " fill="#1B728E" transform="translate(376,166)"/>
<path d="M0 0 C0.66 0 1.32 0 2 0 C2.33 1.32 2.66 2.64 3 4 C2.34 4 1.68 4 1 4 C1 4.99 1 5.98 1 7 C0.01 7.33 -0.98 7.66 -2 8 C-2 7.01 -2 6.02 -2 5 C-1.34 5 -0.68 5 0 5 C0 3.35 0 1.7 0 0 Z " fill="#305878" transform="translate(302,159)"/>
<path d="M0 0 C0.99 0 1.98 0 3 0 C3 1.32 3 2.64 3 4 C0.69 4.33 -1.62 4.66 -4 5 C-2.1875 2.5 -2.1875 2.5 0 0 Z " fill="#5CACB9" transform="translate(361,148)"/>
<path d="M0 0 C0 0.99 0 1.98 0 3 C-3.78187881 4.83691257 -5.94568308 5.15837626 -10 4 C-7.02223754 2.34568752 -4.3332237 1.63060989 -1 1 C-0.67 0.67 -0.34 0.34 0 0 Z " fill="#82BEC6" transform="translate(364,139)"/>
<path d="M0 0 C0.66 0.33 1.32 0.66 2 1 C2 1.99 2 2.98 2 4 C-0.31 3.67 -2.62 3.34 -5 3 C-3 1 -3 1 0 0 Z " fill="#218FA0" transform="translate(351,136)"/>
<path d="M0 0 C0.99 0.33 1.98 0.66 3 1 C2.43628586 4.26954202 1.50037734 5.82575883 -1 8 C-0.67 5.36 -0.34 2.72 0 0 Z " fill="#4BABB4" transform="translate(366,131)"/>
<path d="M0 0 C0.99 0.33 1.98 0.66 3 1 C2.01 1.495 2.01 1.495 1 2 C0.34786708 4.02463255 0.34786708 4.02463255 0 6 C-1.32 6 -2.64 6 -4 6 C-4 5.34 -4 4.68 -4 4 C-3.34 4 -2.68 4 -2 4 C-1.34 2.68 -0.68 1.36 0 0 Z " fill="#0E2F57" transform="translate(355,249)"/>
<path d="M0 0 C1 3 1 3 0 6 C-0.66 6 -1.32 6 -2 6 C-2 4.35 -2 2.7 -2 1 C-1.34 0.67 -0.68 0.34 0 0 Z " fill="#1C4869" transform="translate(355,225)"/>
<path d="M0 0 C0.66 0 1.32 0 2 0 C2.66 2.64 3.32 5.28 4 8 C3.01 7.67 2.02 7.34 1 7 C0.67 4.69 0.34 2.38 0 0 Z " fill="#142C58" transform="translate(294,182)"/>
<path d="M0 0 C0.66 0.33 1.32 0.66 2 1 C-2.625 6.875 -2.625 6.875 -6 8 C-6 7.34 -6 6.68 -6 6 C-5.34 6 -4.68 6 -4 6 C-3.71125 5.38125 -3.4225 4.7625 -3.125 4.125 C-2 2 -2 2 0 0 Z " fill="#51A3AB" transform="translate(387,165)"/>
<path d="M0 0 C0.33 0.99 0.66 1.98 1 3 C-0.9375 5.6875 -0.9375 5.6875 -3 8 C-4 5 -4 5 -3.1875 2.875 C-2 1 -2 1 0 0 Z " fill="#72BBC0" transform="translate(372,127)"/>
<path d="" fill="#808080" transform="translate(0,0)"/>
<path d="" fill="#000000" transform="translate(0,0)"/>
</svg>
